<mxfile host="Electron" agent="Mozilla/5.0 (Windows NT 10.0; Win64; x64) AppleWebKit/537.36 (KHTML, like Gecko) draw.io/25.0.2 Chrome/128.0.6613.186 Electron/32.2.5 Safari/537.36" version="25.0.2">
  <diagram name="Página-1" id="2AGmJtQM-A3Tes5flSVK">
    <mxGraphModel dx="2514" dy="3322" grid="1" gridSize="10" guides="1" tooltips="1" connect="1" arrows="1" fold="1" page="1" pageScale="1" pageWidth="827" pageHeight="1169" math="0" shadow="0">
      <root>
        <mxCell id="0" />
        <mxCell id="1" parent="0" />
        <mxCell id="v0JSW52jI6C11VRUSj4h-1" value="Consultar lista equipos y jugadores" style="ellipse;whiteSpace=wrap;html=1;" parent="1" vertex="1">
          <mxGeometry x="-271.18" y="3070" width="120" height="60" as="geometry" />
        </mxCell>
        <mxCell id="v0JSW52jI6C11VRUSj4h-2" value="Añadir jugador&amp;nbsp; equipo" style="ellipse;whiteSpace=wrap;html=1;" parent="1" vertex="1">
          <mxGeometry x="-271.18" y="3250" width="120" height="60" as="geometry" />
        </mxCell>
        <mxCell id="v0JSW52jI6C11VRUSj4h-3" value="Registrar Equipo" style="ellipse;whiteSpace=wrap;html=1;" parent="1" vertex="1">
          <mxGeometry x="-271.18" y="3560" width="120" height="60" as="geometry" />
        </mxCell>
        <mxCell id="v0JSW52jI6C11VRUSj4h-4" value="Administrador" style="shape=umlActor;verticalLabelPosition=bottom;verticalAlign=top;html=1;outlineConnect=0;" parent="1" vertex="1">
          <mxGeometry x="-626.18" y="3250" width="30" height="55" as="geometry" />
        </mxCell>
        <mxCell id="v0JSW52jI6C11VRUSj4h-5" value="" style="endArrow=none;html=1;rounded=0;entryX=0;entryY=0.5;entryDx=0;entryDy=0;startArrow=none;startFill=0;endFill=0;" parent="1" target="v0JSW52jI6C11VRUSj4h-1" edge="1">
          <mxGeometry width="50" height="50" relative="1" as="geometry">
            <mxPoint x="-571.18" y="3270" as="sourcePoint" />
            <mxPoint x="-251.18" y="3230" as="targetPoint" />
            <Array as="points">
              <mxPoint x="-490" y="3140" />
            </Array>
          </mxGeometry>
        </mxCell>
        <mxCell id="v0JSW52jI6C11VRUSj4h-6" value="" style="endArrow=none;html=1;rounded=0;entryX=0;entryY=0.5;entryDx=0;entryDy=0;endFill=0;" parent="1" target="v0JSW52jI6C11VRUSj4h-2" edge="1">
          <mxGeometry width="50" height="50" relative="1" as="geometry">
            <mxPoint x="-571.18" y="3280" as="sourcePoint" />
            <mxPoint x="-251.18" y="3230" as="targetPoint" />
          </mxGeometry>
        </mxCell>
        <mxCell id="v0JSW52jI6C11VRUSj4h-7" value="" style="endArrow=none;html=1;rounded=0;entryX=0;entryY=0.5;entryDx=0;entryDy=0;endFill=0;" parent="1" target="v0JSW52jI6C11VRUSj4h-3" edge="1">
          <mxGeometry width="50" height="50" relative="1" as="geometry">
            <mxPoint x="-571.18" y="3290" as="sourcePoint" />
            <mxPoint x="-343.18" y="3390" as="targetPoint" />
            <Array as="points">
              <mxPoint x="-561.18" y="3520" />
            </Array>
          </mxGeometry>
        </mxCell>
        <mxCell id="v0JSW52jI6C11VRUSj4h-8" value="" style="shape=flexArrow;endArrow=classic;html=1;rounded=0;" parent="1" edge="1">
          <mxGeometry width="50" height="50" relative="1" as="geometry">
            <mxPoint x="-84.18" y="3813" as="sourcePoint" />
            <mxPoint x="-84" y="2843" as="targetPoint" />
            <Array as="points">
              <mxPoint x="-84.18" y="3113" />
            </Array>
          </mxGeometry>
        </mxCell>
        <mxCell id="v0JSW52jI6C11VRUSj4h-9" value="&lt;font style=&quot;font-size: 36px;&quot;&gt;Dependencia&lt;/font&gt;" style="text;html=1;align=center;verticalAlign=middle;whiteSpace=wrap;rounded=0;rotation=-90;" parent="1" vertex="1">
          <mxGeometry x="-83" y="3290" width="90" height="30" as="geometry" />
        </mxCell>
        <mxCell id="v0JSW52jI6C11VRUSj4h-10" value="" style="endArrow=none;dashed=1;html=1;rounded=0;entryX=0.5;entryY=1;entryDx=0;entryDy=0;exitX=0.5;exitY=0;exitDx=0;exitDy=0;startArrow=open;startFill=0;" parent="1" source="v0JSW52jI6C11VRUSj4h-2" target="v0JSW52jI6C11VRUSj4h-1" edge="1">
          <mxGeometry width="50" height="50" relative="1" as="geometry">
            <mxPoint x="-351.18" y="3310" as="sourcePoint" />
            <mxPoint x="-301.18" y="3260" as="targetPoint" />
          </mxGeometry>
        </mxCell>
        <mxCell id="v0JSW52jI6C11VRUSj4h-11" value="" style="endArrow=none;dashed=1;html=1;rounded=0;entryX=0.5;entryY=1;entryDx=0;entryDy=0;startArrow=open;startFill=0;" parent="1" source="v0JSW52jI6C11VRUSj4h-3" target="v0JSW52jI6C11VRUSj4h-2" edge="1">
          <mxGeometry width="50" height="50" relative="1" as="geometry">
            <mxPoint x="-351.18" y="3310" as="sourcePoint" />
            <mxPoint x="-301.18" y="3260" as="targetPoint" />
            <Array as="points">
              <mxPoint x="-211.18" y="3450" />
            </Array>
          </mxGeometry>
        </mxCell>
        <mxCell id="v0JSW52jI6C11VRUSj4h-106" value="&amp;lt;include&amp;gt;" style="edgeLabel;html=1;align=center;verticalAlign=middle;resizable=0;points=[];" parent="v0JSW52jI6C11VRUSj4h-11" vertex="1" connectable="0">
          <mxGeometry x="0.1524" y="-2" relative="1" as="geometry">
            <mxPoint y="1" as="offset" />
          </mxGeometry>
        </mxCell>
        <mxCell id="v0JSW52jI6C11VRUSj4h-71" value="Comprobar existe equipo&amp;nbsp;" style="ellipse;whiteSpace=wrap;html=1;" parent="1" vertex="1">
          <mxGeometry x="-414.18" y="3340" width="120" height="60" as="geometry" />
        </mxCell>
        <mxCell id="v0JSW52jI6C11VRUSj4h-74" value="Equipo" style="shape=umlActor;verticalLabelPosition=bottom;verticalAlign=top;html=1;" parent="1" vertex="1">
          <mxGeometry x="-618.18" y="3750" width="30" height="60" as="geometry" />
        </mxCell>
        <mxCell id="v0JSW52jI6C11VRUSj4h-76" value="" style="endArrow=none;dashed=1;html=1;rounded=0;entryX=0;entryY=1;entryDx=0;entryDy=0;startArrow=open;startFill=0;exitX=0.5;exitY=0;exitDx=0;exitDy=0;" parent="1" source="v0JSW52jI6C11VRUSj4h-71" target="v0JSW52jI6C11VRUSj4h-2" edge="1">
          <mxGeometry width="50" height="50" relative="1" as="geometry">
            <mxPoint x="-121.18" y="2900" as="sourcePoint" />
            <mxPoint x="-241.18" y="2900" as="targetPoint" />
          </mxGeometry>
        </mxCell>
        <mxCell id="v0JSW52jI6C11VRUSj4h-77" value="Comprobar existe lista equipos y jugadores" style="ellipse;whiteSpace=wrap;html=1;" parent="1" vertex="1">
          <mxGeometry x="-414.18" y="3000" width="120" height="55" as="geometry" />
        </mxCell>
        <mxCell id="v0JSW52jI6C11VRUSj4h-78" value="" style="endArrow=none;dashed=1;html=1;rounded=0;entryX=0;entryY=0;entryDx=0;entryDy=0;startArrow=open;startFill=0;exitX=0.5;exitY=1;exitDx=0;exitDy=0;" parent="1" source="v0JSW52jI6C11VRUSj4h-77" target="v0JSW52jI6C11VRUSj4h-1" edge="1">
          <mxGeometry width="50" height="50" relative="1" as="geometry">
            <mxPoint x="-41.18" y="3290" as="sourcePoint" />
            <mxPoint x="-211.18" y="3290" as="targetPoint" />
            <Array as="points" />
          </mxGeometry>
        </mxCell>
        <mxCell id="v0JSW52jI6C11VRUSj4h-79" value="" style="endArrow=none;dashed=1;html=1;rounded=0;startArrow=open;startFill=0;fontStyle=1;exitX=0.5;exitY=0;exitDx=0;exitDy=0;entryX=0;entryY=1;entryDx=0;entryDy=0;" parent="1" source="v0JSW52jI6C11VRUSj4h-80" target="v0JSW52jI6C11VRUSj4h-3" edge="1">
          <mxGeometry width="50" height="50" relative="1" as="geometry">
            <mxPoint x="-51.18" y="3575" as="sourcePoint" />
            <mxPoint x="-291.18" y="3640" as="targetPoint" />
          </mxGeometry>
        </mxCell>
        <mxCell id="v0JSW52jI6C11VRUSj4h-80" value="Comprobar equipo cumple requisitos" style="ellipse;whiteSpace=wrap;html=1;" parent="1" vertex="1">
          <mxGeometry x="-414.18" y="3640" width="120" height="60" as="geometry" />
        </mxCell>
        <mxCell id="v0JSW52jI6C11VRUSj4h-84" value="Jugador" style="shape=umlActor;verticalLabelPosition=bottom;verticalAlign=top;html=1;outlineConnect=0;" parent="1" vertex="1">
          <mxGeometry x="-618.18" y="3580" width="30" height="60" as="geometry" />
        </mxCell>
        <mxCell id="v0JSW52jI6C11VRUSj4h-89" value="" style="endArrow=none;html=1;rounded=0;entryX=0;entryY=0.5;entryDx=0;entryDy=0;" parent="1" target="v0JSW52jI6C11VRUSj4h-80" edge="1">
          <mxGeometry width="50" height="50" relative="1" as="geometry">
            <mxPoint x="-571.18" y="3620" as="sourcePoint" />
            <mxPoint x="-451.18" y="3710" as="targetPoint" />
          </mxGeometry>
        </mxCell>
        <mxCell id="v0JSW52jI6C11VRUSj4h-91" value="" style="endArrow=none;html=1;rounded=0;entryX=0;entryY=1;entryDx=0;entryDy=0;" parent="1" target="v0JSW52jI6C11VRUSj4h-71" edge="1">
          <mxGeometry width="50" height="50" relative="1" as="geometry">
            <mxPoint x="-571.18" y="3610" as="sourcePoint" />
            <mxPoint x="78.82" y="3460" as="targetPoint" />
          </mxGeometry>
        </mxCell>
        <mxCell id="v0JSW52jI6C11VRUSj4h-95" value="Actualizar Equipo" style="ellipse;whiteSpace=wrap;html=1;" parent="1" vertex="1">
          <mxGeometry x="-414.18" y="3450" width="120" height="60" as="geometry" />
        </mxCell>
        <mxCell id="v0JSW52jI6C11VRUSj4h-97" value="" style="endArrow=none;html=1;rounded=0;entryX=0;entryY=0;entryDx=0;entryDy=0;endFill=0;" parent="1" target="v0JSW52jI6C11VRUSj4h-95" edge="1">
          <mxGeometry width="50" height="50" relative="1" as="geometry">
            <mxPoint x="-561.18" y="3290" as="sourcePoint" />
            <mxPoint x="-331.18" y="3290" as="targetPoint" />
          </mxGeometry>
        </mxCell>
        <mxCell id="v0JSW52jI6C11VRUSj4h-98" value="Actualizar jugador" style="ellipse;whiteSpace=wrap;html=1;" parent="1" vertex="1">
          <mxGeometry x="-414.18" y="3160" width="120" height="60" as="geometry" />
        </mxCell>
        <mxCell id="v0JSW52jI6C11VRUSj4h-99" value="" style="endArrow=none;html=1;rounded=0;entryX=0;entryY=0.5;entryDx=0;entryDy=0;endFill=0;" parent="1" target="v0JSW52jI6C11VRUSj4h-98" edge="1">
          <mxGeometry width="50" height="50" relative="1" as="geometry">
            <mxPoint x="-561.18" y="3270" as="sourcePoint" />
            <mxPoint x="-441.18" y="3390" as="targetPoint" />
          </mxGeometry>
        </mxCell>
        <mxCell id="v0JSW52jI6C11VRUSj4h-101" value="Comprobar jugador cumple requisitos" style="ellipse;whiteSpace=wrap;html=1;" parent="1" vertex="1">
          <mxGeometry x="-414.18" y="3750" width="120" height="60" as="geometry" />
        </mxCell>
        <mxCell id="v0JSW52jI6C11VRUSj4h-102" value="" style="endArrow=none;dashed=1;html=1;rounded=0;startArrow=open;startFill=0;fontStyle=1;exitX=0.5;exitY=0;exitDx=0;exitDy=0;entryX=0.5;entryY=1;entryDx=0;entryDy=0;" parent="1" source="v0JSW52jI6C11VRUSj4h-101" target="v0JSW52jI6C11VRUSj4h-3" edge="1">
          <mxGeometry width="50" height="50" relative="1" as="geometry">
            <mxPoint x="-131.18" y="3685" as="sourcePoint" />
            <mxPoint x="-291.18" y="3640" as="targetPoint" />
            <Array as="points">
              <mxPoint x="-241.18" y="3710" />
            </Array>
          </mxGeometry>
        </mxCell>
        <mxCell id="v0JSW52jI6C11VRUSj4h-103" value="" style="endArrow=none;html=1;rounded=0;entryX=0;entryY=0.5;entryDx=0;entryDy=0;" parent="1" target="v0JSW52jI6C11VRUSj4h-101" edge="1">
          <mxGeometry width="50" height="50" relative="1" as="geometry">
            <mxPoint x="-571.18" y="3780" as="sourcePoint" />
            <mxPoint x="18.82" y="3255" as="targetPoint" />
          </mxGeometry>
        </mxCell>
        <mxCell id="v0JSW52jI6C11VRUSj4h-107" value="ESports&amp;nbsp;&amp;nbsp;&lt;div&gt;Sistema Gestor&lt;/div&gt;" style="shape=umlActor;verticalLabelPosition=bottom;verticalAlign=top;html=1;outlineConnect=0;" parent="1" vertex="1">
          <mxGeometry x="-791.18" y="3247.5" width="30" height="60" as="geometry" />
        </mxCell>
        <mxCell id="v0JSW52jI6C11VRUSj4h-114" value="1" style="endArrow=open;html=1;endSize=12;startArrow=diamondThin;startSize=14;startFill=1;edgeStyle=orthogonalEdgeStyle;align=left;verticalAlign=bottom;rounded=0;" parent="1" edge="1">
          <mxGeometry x="-1" y="20" relative="1" as="geometry">
            <mxPoint x="-631.18" y="3280" as="sourcePoint" />
            <mxPoint x="-751.18" y="3280" as="targetPoint" />
            <mxPoint as="offset" />
          </mxGeometry>
        </mxCell>
        <mxCell id="v0JSW52jI6C11VRUSj4h-171" value="&lt;p style=&quot;margin:0px;margin-top:4px;text-align:center;&quot;&gt;&lt;i&gt;&amp;lt;&amp;lt;Interface&amp;gt;&amp;gt;&lt;/i&gt;&lt;br&gt;&lt;b&gt;eSports&lt;/b&gt;&lt;/p&gt;&lt;hr size=&quot;1&quot; style=&quot;border-style:solid;&quot;&gt;&lt;p style=&quot;margin:0px;margin-left:4px;&quot;&gt;&amp;nbsp;-List&amp;lt;Equipos&amp;gt;&lt;/p&gt;&lt;div&gt;&amp;nbsp; -List&amp;lt;Jugadores&amp;gt;&lt;/div&gt;&lt;div&gt;&amp;nbsp; -List&amp;lt;Torneo&amp;gt;&lt;/div&gt;&lt;div&gt;&amp;nbsp; -List&amp;lt;Partidos&amp;gt;&lt;/div&gt;&lt;hr size=&quot;1&quot; style=&quot;border-style:solid;&quot;&gt;&lt;p style=&quot;margin:0px;margin-left:4px;&quot;&gt;+ crear Equipo(): type Equipo&lt;/p&gt;&lt;div&gt;&amp;nbsp;+ crear Jugador(): type Jugador&lt;/div&gt;&lt;div&gt;&amp;nbsp;+ crear Torneo(): type Torneo&lt;/div&gt;&lt;div&gt;&amp;nbsp;+ crear Partido():type Partido&lt;/div&gt;&lt;div&gt;&amp;nbsp;+ inscribe EquipoTorneo(): type boolean&lt;/div&gt;&lt;div&gt;&amp;nbsp;+ inscribe JugadorEquipo():type boolean&lt;/div&gt;&lt;div&gt;&amp;nbsp;+ buscar Equipo(): type Equipo&lt;/div&gt;&lt;div&gt;&amp;nbsp;+ buscar Jugador(): type Jugador&lt;/div&gt;&lt;div&gt;&amp;nbsp;+ buscar Torneo(): type Torneo&lt;/div&gt;&lt;div&gt;&amp;nbsp;+ buscar Partido(): type Partido&lt;/div&gt;&lt;div&gt;&amp;nbsp;+ modificar Equipo():type Equipo&lt;/div&gt;&lt;div&gt;&amp;nbsp;+ modificar Jugador(): type Jugador&lt;/div&gt;&lt;div&gt;&amp;nbsp;+ modificar Torneo(): type Torneo&lt;/div&gt;&lt;div&gt;&amp;nbsp;+ modificar Partido():type Partido&lt;/div&gt;&lt;div&gt;&amp;nbsp;+ eliminar Equipo():type Equipo&lt;/div&gt;&lt;div&gt;&amp;nbsp;+ eliminar Jugador():type Jugador&lt;br&gt;&lt;/div&gt;&lt;div&gt;&amp;nbsp;+ eliminar Torneo():type Torneo&lt;br&gt;&lt;/div&gt;&lt;div&gt;&amp;nbsp;+ eliminar Partido():type Partido&lt;br&gt;&lt;/div&gt;&lt;div&gt;&lt;br&gt;&lt;/div&gt;&lt;div&gt;&lt;span style=&quot;background-color: initial;&quot;&gt;&amp;nbsp;- notifficarNuevoEquipo() type boolean&lt;/span&gt;&lt;br&gt;&lt;/div&gt;&lt;div&gt;&amp;nbsp;- notificarNuevoJugador() type boolean&lt;br&gt;&lt;/div&gt;&lt;div&gt;&amp;nbsp;- notificarNuevoTorneo() type boolean&lt;br&gt;&lt;/div&gt;&lt;div&gt;&amp;nbsp;- notificarNuevoPartido() type boolean&lt;br&gt;&lt;/div&gt;&lt;div&gt;&amp;nbsp;&lt;/div&gt;&lt;div&gt;&lt;br&gt;&lt;/div&gt;" style="verticalAlign=top;align=left;overflow=fill;html=1;whiteSpace=wrap;" parent="1" vertex="1">
          <mxGeometry x="-323" y="-1200" width="240" height="470" as="geometry" />
        </mxCell>
        <mxCell id="v0JSW52jI6C11VRUSj4h-173" value="" style="endArrow=none;dashed=1;html=1;rounded=0;entryX=1.013;entryY=0.106;entryDx=0;entryDy=0;startArrow=open;startFill=0;fontStyle=1;exitX=-0.01;exitY=0.73;exitDx=0;exitDy=0;exitPerimeter=0;entryPerimeter=0;" parent="1" source="v0JSW52jI6C11VRUSj4h-211" target="v0JSW52jI6C11VRUSj4h-208" edge="1">
          <mxGeometry width="50" height="50" relative="1" as="geometry">
            <mxPoint x="-430" y="954" as="sourcePoint" />
            <mxPoint x="-520" y="994" as="targetPoint" />
          </mxGeometry>
        </mxCell>
        <mxCell id="v0JSW52jI6C11VRUSj4h-178" value="Administrador" style="swimlane;fontStyle=1;align=center;verticalAlign=top;childLayout=stackLayout;horizontal=1;startSize=26;horizontalStack=0;resizeParent=1;resizeParentMax=0;resizeLast=0;collapsible=1;marginBottom=0;whiteSpace=wrap;html=1;" parent="1" vertex="1">
          <mxGeometry x="-743" y="-579" width="220" height="430" as="geometry" />
        </mxCell>
        <mxCell id="v0JSW52jI6C11VRUSj4h-179" value="+ nombre: type String&lt;div&gt;&lt;div&gt;+ apel1: type String&lt;br&gt;&lt;/div&gt;&lt;/div&gt;&lt;div&gt;&lt;span style=&quot;background-color: initial;&quot;&gt;+ dni: type int&lt;/span&gt;&lt;br&gt;&lt;/div&gt;&lt;div&gt;&lt;div&gt;&lt;span style=&quot;background-color: initial;&quot;&gt;+ cod: type int&lt;/span&gt;&lt;br&gt;&lt;/div&gt;&lt;div&gt;&lt;span style=&quot;background-color: initial;&quot;&gt;+ antigüedad:type DateTime&lt;/span&gt;&lt;br&gt;&lt;/div&gt;&lt;/div&gt;" style="text;strokeColor=none;fillColor=none;align=left;verticalAlign=top;spacingLeft=4;spacingRight=4;overflow=hidden;rotatable=0;points=[[0,0.5],[1,0.5]];portConstraint=eastwest;whiteSpace=wrap;html=1;" parent="v0JSW52jI6C11VRUSj4h-178" vertex="1">
          <mxGeometry y="26" width="220" height="84" as="geometry" />
        </mxCell>
        <mxCell id="v0JSW52jI6C11VRUSj4h-180" value="" style="line;strokeWidth=1;fillColor=none;align=left;verticalAlign=middle;spacingTop=-1;spacingLeft=3;spacingRight=3;rotatable=0;labelPosition=right;points=[];portConstraint=eastwest;strokeColor=inherit;" parent="v0JSW52jI6C11VRUSj4h-178" vertex="1">
          <mxGeometry y="110" width="220" height="8" as="geometry" />
        </mxCell>
        <mxCell id="v0JSW52jI6C11VRUSj4h-181" value="+ registrarEquipo():type Equipo&lt;div&gt;&lt;span style=&quot;background-color: initial;&quot;&gt;+ modificarEquipo():type Equipo&lt;/span&gt;&lt;br&gt;&lt;/div&gt;&lt;div&gt;&lt;span style=&quot;background-color: initial;&quot;&gt;+ buscarEquipo():type Equipo&lt;/span&gt;&lt;br&gt;&lt;/div&gt;&lt;div&gt;&lt;span style=&quot;background-color: initial;&quot;&gt;+ eliminarEquipo():type Equipo&lt;/span&gt;&lt;/div&gt;&lt;div&gt;+ registrarJugador():type Jugador&lt;div&gt;&lt;span style=&quot;background-color: initial;&quot;&gt;+ modificarJugador():type&amp;nbsp;&lt;/span&gt;&lt;span style=&quot;background-color: initial;&quot;&gt;Jugador&lt;/span&gt;&lt;br&gt;&lt;/div&gt;&lt;div&gt;&lt;span style=&quot;background-color: initial;&quot;&gt;+ buscarJugador():type&amp;nbsp;&lt;/span&gt;&lt;span style=&quot;background-color: initial;&quot;&gt;Jugador&lt;/span&gt;&lt;br&gt;&lt;/div&gt;&lt;div&gt;&lt;span style=&quot;background-color: initial;&quot;&gt;+ eliminarJugador():type&amp;nbsp;&lt;/span&gt;&lt;span style=&quot;background-color: initial;&quot;&gt;Jugador&lt;/span&gt;&lt;br&gt;&lt;/div&gt;&lt;div&gt;+ crearTorneo():type Torneo&lt;div&gt;&lt;span style=&quot;background-color: initial;&quot;&gt;+ modificarTorneo():type&amp;nbsp;&lt;/span&gt;&lt;span style=&quot;background-color: initial;&quot;&gt;Torneo&lt;/span&gt;&lt;br&gt;&lt;/div&gt;&lt;div&gt;&lt;span style=&quot;background-color: initial;&quot;&gt;+ buscarTorneo():type&amp;nbsp;&lt;/span&gt;&lt;span style=&quot;background-color: initial;&quot;&gt;Torneo&lt;/span&gt;&lt;br&gt;&lt;/div&gt;&lt;div&gt;&lt;span style=&quot;background-color: initial;&quot;&gt;+ eliminarTorneo():type&amp;nbsp;&lt;/span&gt;&lt;span style=&quot;background-color: initial;&quot;&gt;Torneo&lt;/span&gt;&lt;br&gt;&lt;/div&gt;&lt;div&gt;&lt;span style=&quot;background-color: initial;&quot;&gt;+ crearPartido():type Partido&lt;/span&gt;&lt;/div&gt;&lt;/div&gt;&lt;/div&gt;&lt;div&gt;&lt;div&gt;&lt;span style=&quot;background-color: initial;&quot;&gt;+ modificarTorneo():type&amp;nbsp;&lt;/span&gt;&lt;span style=&quot;background-color: initial;&quot;&gt;Torneo&lt;/span&gt;&lt;br&gt;&lt;/div&gt;&lt;div&gt;&lt;span style=&quot;background-color: initial;&quot;&gt;+ buscarTorneo():type&amp;nbsp;&lt;/span&gt;&lt;span style=&quot;background-color: initial;&quot;&gt;Torneo&lt;/span&gt;&lt;br&gt;&lt;/div&gt;&lt;div&gt;&lt;span style=&quot;background-color: initial;&quot;&gt;+ eliminarTorneo():type&amp;nbsp;&lt;/span&gt;&lt;span style=&quot;background-color: initial;&quot;&gt;Torneo&lt;/span&gt;&lt;/div&gt;&lt;/div&gt;&lt;div&gt;&lt;div&gt;&lt;span style=&quot;background-color: initial;&quot;&gt;+ Constructor con todo&lt;/span&gt;&lt;/div&gt;&lt;div&gt;&lt;span style=&quot;background-color: initial;&quot;&gt;+ Constructor con nada&lt;/span&gt;&lt;/div&gt;&lt;div&gt;&lt;span style=&quot;background-color: initial;&quot;&gt;+ Getter&amp;amp;Setter&lt;/span&gt;&lt;/div&gt;&lt;div&gt;+ toString&lt;/div&gt;&lt;div&gt;+ Equals&amp;amp;HasCode: cod&lt;/div&gt;&lt;/div&gt;" style="text;strokeColor=none;fillColor=none;align=left;verticalAlign=top;spacingLeft=4;spacingRight=4;overflow=hidden;rotatable=0;points=[[0,0.5],[1,0.5]];portConstraint=eastwest;whiteSpace=wrap;html=1;" parent="v0JSW52jI6C11VRUSj4h-178" vertex="1">
          <mxGeometry y="118" width="220" height="312" as="geometry" />
        </mxCell>
        <mxCell id="v0JSW52jI6C11VRUSj4h-182" value="Administrador" style="swimlane;fontStyle=1;align=center;verticalAlign=top;childLayout=stackLayout;horizontal=1;startSize=26;horizontalStack=0;resizeParent=1;resizeParentMax=0;resizeLast=0;collapsible=1;marginBottom=0;whiteSpace=wrap;html=1;" parent="1" vertex="1">
          <mxGeometry x="-743" y="-1192" width="220" height="440" as="geometry" />
        </mxCell>
        <mxCell id="v0JSW52jI6C11VRUSj4h-183" value="+ nombre: type String&lt;div&gt;&lt;div&gt;+ apel1: type String&lt;br&gt;&lt;/div&gt;&lt;/div&gt;&lt;div&gt;&lt;span style=&quot;background-color: initial;&quot;&gt;+ dni: type int&lt;/span&gt;&lt;br&gt;&lt;/div&gt;&lt;div&gt;&lt;div&gt;&lt;span style=&quot;background-color: initial;&quot;&gt;+ cod: type int&lt;/span&gt;&lt;br&gt;&lt;/div&gt;&lt;div&gt;&lt;span style=&quot;background-color: initial;&quot;&gt;+ antigüedad:type DateTime&lt;/span&gt;&lt;br&gt;&lt;/div&gt;&lt;/div&gt;" style="text;strokeColor=none;fillColor=none;align=left;verticalAlign=top;spacingLeft=4;spacingRight=4;overflow=hidden;rotatable=0;points=[[0,0.5],[1,0.5]];portConstraint=eastwest;whiteSpace=wrap;html=1;" parent="v0JSW52jI6C11VRUSj4h-182" vertex="1">
          <mxGeometry y="26" width="220" height="84" as="geometry" />
        </mxCell>
        <mxCell id="v0JSW52jI6C11VRUSj4h-184" value="" style="line;strokeWidth=1;fillColor=none;align=left;verticalAlign=middle;spacingTop=-1;spacingLeft=3;spacingRight=3;rotatable=0;labelPosition=right;points=[];portConstraint=eastwest;strokeColor=inherit;" parent="v0JSW52jI6C11VRUSj4h-182" vertex="1">
          <mxGeometry y="110" width="220" height="8" as="geometry" />
        </mxCell>
        <mxCell id="v0JSW52jI6C11VRUSj4h-185" value="+ registrarEquipo():type Equipo&lt;div&gt;&lt;span style=&quot;background-color: initial;&quot;&gt;+ modificarEquipo():type Equipo&lt;/span&gt;&lt;br&gt;&lt;/div&gt;&lt;div&gt;&lt;span style=&quot;background-color: initial;&quot;&gt;+ buscarEquipo():type Equipo&lt;/span&gt;&lt;br&gt;&lt;/div&gt;&lt;div&gt;&lt;span style=&quot;background-color: initial;&quot;&gt;+ eliminarEquipo():type Equipo&lt;/span&gt;&lt;/div&gt;&lt;div&gt;+ registrarJugador():type Jugador&lt;div&gt;&lt;span style=&quot;background-color: initial;&quot;&gt;+ modificarJugador():type&amp;nbsp;&lt;/span&gt;&lt;span style=&quot;background-color: initial;&quot;&gt;Jugador&lt;/span&gt;&lt;br&gt;&lt;/div&gt;&lt;div&gt;&lt;span style=&quot;background-color: initial;&quot;&gt;+ buscarJugador():type&amp;nbsp;&lt;/span&gt;&lt;span style=&quot;background-color: initial;&quot;&gt;Jugador&lt;/span&gt;&lt;br&gt;&lt;/div&gt;&lt;div&gt;&lt;span style=&quot;background-color: initial;&quot;&gt;+ eliminarJugador():type&amp;nbsp;&lt;/span&gt;&lt;span style=&quot;background-color: initial;&quot;&gt;Jugador&lt;/span&gt;&lt;br&gt;&lt;/div&gt;&lt;div&gt;+ crearTorneo():type Torneo&lt;div&gt;&lt;span style=&quot;background-color: initial;&quot;&gt;+ modificarTorneo():type&amp;nbsp;&lt;/span&gt;&lt;span style=&quot;background-color: initial;&quot;&gt;Torneo&lt;/span&gt;&lt;br&gt;&lt;/div&gt;&lt;div&gt;&lt;span style=&quot;background-color: initial;&quot;&gt;+ buscarTorneo():type&amp;nbsp;&lt;/span&gt;&lt;span style=&quot;background-color: initial;&quot;&gt;Torneo&lt;/span&gt;&lt;br&gt;&lt;/div&gt;&lt;div&gt;&lt;span style=&quot;background-color: initial;&quot;&gt;+ eliminarTorneo():type&amp;nbsp;&lt;/span&gt;&lt;span style=&quot;background-color: initial;&quot;&gt;Torneo&lt;/span&gt;&lt;br&gt;&lt;/div&gt;&lt;div&gt;&lt;span style=&quot;background-color: initial;&quot;&gt;+ crearPartido():type Partido&lt;/span&gt;&lt;/div&gt;&lt;/div&gt;&lt;/div&gt;&lt;div&gt;&lt;div&gt;&lt;span style=&quot;background-color: initial;&quot;&gt;+ modificarTorneo():type&amp;nbsp;&lt;/span&gt;&lt;span style=&quot;background-color: initial;&quot;&gt;Torneo&lt;/span&gt;&lt;br&gt;&lt;/div&gt;&lt;div&gt;&lt;span style=&quot;background-color: initial;&quot;&gt;+ buscarTorneo():type&amp;nbsp;&lt;/span&gt;&lt;span style=&quot;background-color: initial;&quot;&gt;Torneo&lt;/span&gt;&lt;br&gt;&lt;/div&gt;&lt;div&gt;&lt;span style=&quot;background-color: initial;&quot;&gt;+ eliminarTorneo():type&amp;nbsp;&lt;/span&gt;&lt;span style=&quot;background-color: initial;&quot;&gt;Torneo&lt;/span&gt;&lt;/div&gt;&lt;/div&gt;&lt;div&gt;&lt;span style=&quot;background-color: initial;&quot;&gt;+ Constructor con todo&lt;/span&gt;&lt;/div&gt;&lt;div&gt;&lt;span style=&quot;background-color: initial;&quot;&gt;+ Constructor con nada&lt;/span&gt;&lt;/div&gt;&lt;div&gt;&lt;span style=&quot;background-color: initial;&quot;&gt;+ Getter&amp;amp;Setter&lt;/span&gt;&lt;/div&gt;&lt;div&gt;+ toString&lt;/div&gt;&lt;div&gt;+ Equals&amp;amp;HasCode: cod&lt;/div&gt;" style="text;strokeColor=none;fillColor=none;align=left;verticalAlign=top;spacingLeft=4;spacingRight=4;overflow=hidden;rotatable=0;points=[[0,0.5],[1,0.5]];portConstraint=eastwest;whiteSpace=wrap;html=1;" parent="v0JSW52jI6C11VRUSj4h-182" vertex="1">
          <mxGeometry y="118" width="220" height="322" as="geometry" />
        </mxCell>
        <mxCell id="v0JSW52jI6C11VRUSj4h-190" value="Jugador" style="swimlane;fontStyle=1;align=center;verticalAlign=top;childLayout=stackLayout;horizontal=1;startSize=26;horizontalStack=0;resizeParent=1;resizeParentMax=0;resizeLast=0;collapsible=1;marginBottom=0;whiteSpace=wrap;html=1;" parent="1" vertex="1">
          <mxGeometry x="-323" y="-474" width="220" height="270" as="geometry" />
        </mxCell>
        <mxCell id="v0JSW52jI6C11VRUSj4h-191" value="&lt;div&gt;+ nombre: type String&lt;/div&gt;&lt;div&gt;+apel1: type String&lt;/div&gt;+ dni: type int&lt;div&gt;&lt;span style=&quot;background-color: initial;&quot;&gt;+ cod: type int&lt;/span&gt;&lt;br&gt;&lt;/div&gt;&lt;div&gt;&lt;span style=&quot;background-color: initial;&quot;&gt;+ nomEquipo:type String&lt;/span&gt;&lt;br&gt;&lt;/div&gt;&lt;div&gt;&lt;span style=&quot;background-color: initial;&quot;&gt;+ a&lt;/span&gt;&lt;span style=&quot;background-color: initial;&quot;&gt;ntigüedad:type DateTime&lt;/span&gt;&lt;br&gt;&lt;/div&gt;" style="text;strokeColor=none;fillColor=none;align=left;verticalAlign=top;spacingLeft=4;spacingRight=4;overflow=hidden;rotatable=0;points=[[0,0.5],[1,0.5]];portConstraint=eastwest;whiteSpace=wrap;html=1;" parent="v0JSW52jI6C11VRUSj4h-190" vertex="1">
          <mxGeometry y="26" width="220" height="104" as="geometry" />
        </mxCell>
        <mxCell id="v0JSW52jI6C11VRUSj4h-192" value="" style="line;strokeWidth=1;fillColor=none;align=left;verticalAlign=middle;spacingTop=-1;spacingLeft=3;spacingRight=3;rotatable=0;labelPosition=right;points=[];portConstraint=eastwest;strokeColor=inherit;" parent="v0JSW52jI6C11VRUSj4h-190" vertex="1">
          <mxGeometry y="130" width="220" height="8" as="geometry" />
        </mxCell>
        <mxCell id="v0JSW52jI6C11VRUSj4h-193" value="+ comprobarEquipo(): Type Equipo&lt;div&gt;+ altaEquipo(); type Equipo&lt;/div&gt;&lt;div&gt;+ bajaEquipo(): type Equipo&lt;/div&gt;&lt;div&gt;&lt;div&gt;&lt;span style=&quot;background-color: initial;&quot;&gt;+ Constructor con todo&lt;/span&gt;&lt;/div&gt;&lt;div&gt;&lt;span style=&quot;background-color: initial;&quot;&gt;+ Constructor con nada&lt;/span&gt;&lt;/div&gt;&lt;div&gt;&lt;span style=&quot;background-color: initial;&quot;&gt;+ Getter&amp;amp;Setter&lt;/span&gt;&lt;/div&gt;&lt;div&gt;+ toString&lt;/div&gt;&lt;div&gt;+ Equals&amp;amp;HasCode: cod&lt;/div&gt;&lt;/div&gt;" style="text;strokeColor=none;fillColor=none;align=left;verticalAlign=top;spacingLeft=4;spacingRight=4;overflow=hidden;rotatable=0;points=[[0,0.5],[1,0.5]];portConstraint=eastwest;whiteSpace=wrap;html=1;" parent="v0JSW52jI6C11VRUSj4h-190" vertex="1">
          <mxGeometry y="138" width="220" height="132" as="geometry" />
        </mxCell>
        <mxCell id="v0JSW52jI6C11VRUSj4h-194" value="Equipo" style="swimlane;fontStyle=1;align=center;verticalAlign=top;childLayout=stackLayout;horizontal=1;startSize=26;horizontalStack=0;resizeParent=1;resizeParentMax=0;resizeLast=0;collapsible=1;marginBottom=0;whiteSpace=wrap;html=1;" parent="1" vertex="1">
          <mxGeometry x="-313" y="-54" width="220" height="310" as="geometry" />
        </mxCell>
        <mxCell id="v0JSW52jI6C11VRUSj4h-195" value="+ nomEquipo: type String&lt;div&gt;+ ciudad: type String&lt;br&gt;&lt;/div&gt;&lt;div&gt;&lt;div&gt;&lt;span style=&quot;background-color: initial;&quot;&gt;+ Cod: type int&lt;/span&gt;&lt;br&gt;&lt;/div&gt;&lt;div&gt;&lt;span style=&quot;background-color: initial;&quot;&gt;+ Antigüedad:type DateTime&lt;/span&gt;&lt;br&gt;&lt;/div&gt;&lt;/div&gt;" style="text;strokeColor=none;fillColor=none;align=left;verticalAlign=top;spacingLeft=4;spacingRight=4;overflow=hidden;rotatable=0;points=[[0,0.5],[1,0.5]];portConstraint=eastwest;whiteSpace=wrap;html=1;" parent="v0JSW52jI6C11VRUSj4h-194" vertex="1">
          <mxGeometry y="26" width="220" height="74" as="geometry" />
        </mxCell>
        <mxCell id="v0JSW52jI6C11VRUSj4h-196" value="" style="line;strokeWidth=1;fillColor=none;align=left;verticalAlign=middle;spacingTop=-1;spacingLeft=3;spacingRight=3;rotatable=0;labelPosition=right;points=[];portConstraint=eastwest;strokeColor=inherit;" parent="v0JSW52jI6C11VRUSj4h-194" vertex="1">
          <mxGeometry y="100" width="220" height="8" as="geometry" />
        </mxCell>
        <mxCell id="v0JSW52jI6C11VRUSj4h-197" value="+ registrarTorneo(): Type Torneo&lt;div&gt;+ buscarTorneo(): type Torneo&lt;/div&gt;&lt;div&gt;+ bajaTorneo(): type Torneo&lt;br&gt;&lt;div&gt;+ comprobarJugador(): type Jugador&lt;div&gt;+ altaJugador(); type Jugador&lt;/div&gt;&lt;div&gt;+ eliminarJugador(): Type Jugador&lt;/div&gt;&lt;div&gt;+ buscarPartido(): Type Partido&lt;/div&gt;&lt;div&gt;+modificarEquipo(): Type Equipo&lt;/div&gt;&lt;div&gt;&lt;div&gt;&lt;span style=&quot;background-color: initial;&quot;&gt;+ Constructor con todo&lt;/span&gt;&lt;/div&gt;&lt;div&gt;&lt;span style=&quot;background-color: initial;&quot;&gt;+ Constructor con nada&lt;/span&gt;&lt;/div&gt;&lt;div&gt;&lt;span style=&quot;background-color: initial;&quot;&gt;+ Getter&amp;amp;Setter&lt;/span&gt;&lt;/div&gt;&lt;div&gt;+ toString&lt;/div&gt;&lt;div&gt;+ Equals&amp;amp;HasCode: cod&lt;/div&gt;&lt;/div&gt;&lt;div&gt;&lt;br&gt;&lt;/div&gt;&lt;div&gt;&lt;br&gt;&lt;/div&gt;&lt;/div&gt;&lt;/div&gt;" style="text;strokeColor=none;fillColor=none;align=left;verticalAlign=top;spacingLeft=4;spacingRight=4;overflow=hidden;rotatable=0;points=[[0,0.5],[1,0.5]];portConstraint=eastwest;whiteSpace=wrap;html=1;" parent="v0JSW52jI6C11VRUSj4h-194" vertex="1">
          <mxGeometry y="108" width="220" height="202" as="geometry" />
        </mxCell>
        <mxCell id="v0JSW52jI6C11VRUSj4h-198" value="" style="endArrow=none;html=1;rounded=0;exitX=1;exitY=0.311;exitDx=0;exitDy=0;exitPerimeter=0;entryX=0;entryY=0.812;entryDx=0;entryDy=0;entryPerimeter=0;" parent="1" source="v0JSW52jI6C11VRUSj4h-181" target="v0JSW52jI6C11VRUSj4h-191" edge="1">
          <mxGeometry width="50" height="50" relative="1" as="geometry">
            <mxPoint x="-514" y="-1204" as="sourcePoint" />
            <mxPoint x="-303" y="-363" as="targetPoint" />
          </mxGeometry>
        </mxCell>
        <mxCell id="v0JSW52jI6C11VRUSj4h-199" value="Administrador" style="swimlane;fontStyle=1;align=center;verticalAlign=top;childLayout=stackLayout;horizontal=1;startSize=26;horizontalStack=0;resizeParent=1;resizeParentMax=0;resizeLast=0;collapsible=1;marginBottom=0;whiteSpace=wrap;html=1;" parent="1" vertex="1">
          <mxGeometry x="-743" y="-119" width="220" height="430" as="geometry" />
        </mxCell>
        <mxCell id="v0JSW52jI6C11VRUSj4h-200" value="+ nombre: type String&lt;div&gt;&lt;div&gt;+ apel1: type String&lt;br&gt;&lt;/div&gt;&lt;/div&gt;&lt;div&gt;&lt;span style=&quot;background-color: initial;&quot;&gt;+ dni: type int&lt;/span&gt;&lt;br&gt;&lt;/div&gt;&lt;div&gt;&lt;div&gt;&lt;span style=&quot;background-color: initial;&quot;&gt;+ cod: type int&lt;/span&gt;&lt;br&gt;&lt;/div&gt;&lt;div&gt;&lt;span style=&quot;background-color: initial;&quot;&gt;+ antigüedad:type DateTime&lt;/span&gt;&lt;br&gt;&lt;/div&gt;&lt;/div&gt;" style="text;strokeColor=none;fillColor=none;align=left;verticalAlign=top;spacingLeft=4;spacingRight=4;overflow=hidden;rotatable=0;points=[[0,0.5],[1,0.5]];portConstraint=eastwest;whiteSpace=wrap;html=1;" parent="v0JSW52jI6C11VRUSj4h-199" vertex="1">
          <mxGeometry y="26" width="220" height="84" as="geometry" />
        </mxCell>
        <mxCell id="v0JSW52jI6C11VRUSj4h-201" value="" style="line;strokeWidth=1;fillColor=none;align=left;verticalAlign=middle;spacingTop=-1;spacingLeft=3;spacingRight=3;rotatable=0;labelPosition=right;points=[];portConstraint=eastwest;strokeColor=inherit;" parent="v0JSW52jI6C11VRUSj4h-199" vertex="1">
          <mxGeometry y="110" width="220" height="8" as="geometry" />
        </mxCell>
        <mxCell id="v0JSW52jI6C11VRUSj4h-202" value="+ registrarEquipo():type Equipo&lt;div&gt;&lt;span style=&quot;background-color: initial;&quot;&gt;+ modificarEquipo():type Equipo&lt;/span&gt;&lt;br&gt;&lt;/div&gt;&lt;div&gt;&lt;span style=&quot;background-color: initial;&quot;&gt;+ buscarEquipo():type Equipo&lt;/span&gt;&lt;br&gt;&lt;/div&gt;&lt;div&gt;&lt;span style=&quot;background-color: initial;&quot;&gt;+ eliminarEquipo():type Equipo&lt;/span&gt;&lt;/div&gt;&lt;div&gt;+ registrarJugador():type Jugador&lt;div&gt;&lt;span style=&quot;background-color: initial;&quot;&gt;+ modificarJugador():type&amp;nbsp;&lt;/span&gt;&lt;span style=&quot;background-color: initial;&quot;&gt;Jugador&lt;/span&gt;&lt;br&gt;&lt;/div&gt;&lt;div&gt;&lt;span style=&quot;background-color: initial;&quot;&gt;+ buscarJugador():type&amp;nbsp;&lt;/span&gt;&lt;span style=&quot;background-color: initial;&quot;&gt;Jugador&lt;/span&gt;&lt;br&gt;&lt;/div&gt;&lt;div&gt;&lt;span style=&quot;background-color: initial;&quot;&gt;+ eliminarJugador():type&amp;nbsp;&lt;/span&gt;&lt;span style=&quot;background-color: initial;&quot;&gt;Jugador&lt;/span&gt;&lt;br&gt;&lt;/div&gt;&lt;div&gt;+ crearTorneo():type Torneo&lt;div&gt;&lt;span style=&quot;background-color: initial;&quot;&gt;+ modificarTorneo():type&amp;nbsp;&lt;/span&gt;&lt;span style=&quot;background-color: initial;&quot;&gt;Torneo&lt;/span&gt;&lt;br&gt;&lt;/div&gt;&lt;div&gt;&lt;span style=&quot;background-color: initial;&quot;&gt;+ buscarTorneo():type&amp;nbsp;&lt;/span&gt;&lt;span style=&quot;background-color: initial;&quot;&gt;Torneo&lt;/span&gt;&lt;br&gt;&lt;/div&gt;&lt;div&gt;&lt;span style=&quot;background-color: initial;&quot;&gt;+ eliminarTorneo():type&amp;nbsp;&lt;/span&gt;&lt;span style=&quot;background-color: initial;&quot;&gt;Torneo&lt;/span&gt;&lt;br&gt;&lt;/div&gt;&lt;div&gt;&lt;span style=&quot;background-color: initial;&quot;&gt;+ crearPartido():type Partido&lt;/span&gt;&lt;/div&gt;&lt;/div&gt;&lt;/div&gt;&lt;div&gt;&lt;div&gt;&lt;span style=&quot;background-color: initial;&quot;&gt;+ modificarTorneo():type&amp;nbsp;&lt;/span&gt;&lt;span style=&quot;background-color: initial;&quot;&gt;Torneo&lt;/span&gt;&lt;br&gt;&lt;/div&gt;&lt;div&gt;&lt;span style=&quot;background-color: initial;&quot;&gt;+ buscarTorneo():type&amp;nbsp;&lt;/span&gt;&lt;span style=&quot;background-color: initial;&quot;&gt;Torneo&lt;/span&gt;&lt;br&gt;&lt;/div&gt;&lt;div&gt;&lt;span style=&quot;background-color: initial;&quot;&gt;+ eliminarTorneo():type&amp;nbsp;&lt;/span&gt;&lt;span style=&quot;background-color: initial;&quot;&gt;Torneo&lt;/span&gt;&lt;/div&gt;&lt;/div&gt;&lt;div&gt;&lt;div&gt;&lt;span style=&quot;background-color: initial;&quot;&gt;+ Constructor con todo&lt;/span&gt;&lt;/div&gt;&lt;div&gt;&lt;span style=&quot;background-color: initial;&quot;&gt;+ Constructor con nada&lt;/span&gt;&lt;/div&gt;&lt;div&gt;&lt;span style=&quot;background-color: initial;&quot;&gt;+ Getter&amp;amp;Setter&lt;/span&gt;&lt;/div&gt;&lt;div&gt;+ toString&lt;/div&gt;&lt;div&gt;+ Equals&amp;amp;HasCode: cod&lt;/div&gt;&lt;/div&gt;" style="text;strokeColor=none;fillColor=none;align=left;verticalAlign=top;spacingLeft=4;spacingRight=4;overflow=hidden;rotatable=0;points=[[0,0.5],[1,0.5]];portConstraint=eastwest;whiteSpace=wrap;html=1;" parent="v0JSW52jI6C11VRUSj4h-199" vertex="1">
          <mxGeometry y="118" width="220" height="312" as="geometry" />
        </mxCell>
        <mxCell id="v0JSW52jI6C11VRUSj4h-203" value="1" style="endArrow=open;html=1;endSize=12;startArrow=diamondThin;startSize=14;startFill=1;edgeStyle=orthogonalEdgeStyle;align=left;verticalAlign=bottom;rounded=0;" parent="1" edge="1">
          <mxGeometry x="-0.83" y="20" relative="1" as="geometry">
            <mxPoint x="-323" y="-960" as="sourcePoint" />
            <mxPoint x="-523" y="-960" as="targetPoint" />
            <mxPoint as="offset" />
          </mxGeometry>
        </mxCell>
        <mxCell id="v0JSW52jI6C11VRUSj4h-204" value="" style="endArrow=none;html=1;rounded=0;" parent="1" edge="1">
          <mxGeometry width="50" height="50" relative="1" as="geometry">
            <mxPoint x="-523" y="73" as="sourcePoint" />
            <mxPoint x="-313" y="72" as="targetPoint" />
          </mxGeometry>
        </mxCell>
        <mxCell id="v0JSW52jI6C11VRUSj4h-205" value="Equipo" style="swimlane;fontStyle=1;align=center;verticalAlign=top;childLayout=stackLayout;horizontal=1;startSize=26;horizontalStack=0;resizeParent=1;resizeParentMax=0;resizeLast=0;collapsible=1;marginBottom=0;whiteSpace=wrap;html=1;" parent="1" vertex="1">
          <mxGeometry x="-743" y="510" width="220" height="310" as="geometry" />
        </mxCell>
        <mxCell id="v0JSW52jI6C11VRUSj4h-206" value="+ nomEquipo: type String&lt;div&gt;+ ciudad: type String&lt;br&gt;&lt;/div&gt;&lt;div&gt;&lt;div&gt;&lt;span style=&quot;background-color: initial;&quot;&gt;+ Cod: type int&lt;/span&gt;&lt;br&gt;&lt;/div&gt;&lt;div&gt;&lt;span style=&quot;background-color: initial;&quot;&gt;+ Antigüedad:type DateTime&lt;/span&gt;&lt;br&gt;&lt;/div&gt;&lt;/div&gt;" style="text;strokeColor=none;fillColor=none;align=left;verticalAlign=top;spacingLeft=4;spacingRight=4;overflow=hidden;rotatable=0;points=[[0,0.5],[1,0.5]];portConstraint=eastwest;whiteSpace=wrap;html=1;" parent="v0JSW52jI6C11VRUSj4h-205" vertex="1">
          <mxGeometry y="26" width="220" height="74" as="geometry" />
        </mxCell>
        <mxCell id="v0JSW52jI6C11VRUSj4h-207" value="" style="line;strokeWidth=1;fillColor=none;align=left;verticalAlign=middle;spacingTop=-1;spacingLeft=3;spacingRight=3;rotatable=0;labelPosition=right;points=[];portConstraint=eastwest;strokeColor=inherit;" parent="v0JSW52jI6C11VRUSj4h-205" vertex="1">
          <mxGeometry y="100" width="220" height="8" as="geometry" />
        </mxCell>
        <mxCell id="v0JSW52jI6C11VRUSj4h-208" value="+ registrarTorneo(): Type Torneo&lt;div&gt;+ buscarTorneo(): type Torneo&lt;/div&gt;&lt;div&gt;+ bajaTorneo(): type Torneo&lt;br&gt;&lt;div&gt;+ comprobarJugador(): type Jugador&lt;div&gt;+ altaJugador(); type Jugador&lt;/div&gt;&lt;div&gt;+ eliminarJugador(): Type Jugador&lt;/div&gt;&lt;div&gt;+ buscarPartido(): Type Partido&lt;/div&gt;&lt;div&gt;+modificarEquipo(): Type Equipo&lt;/div&gt;&lt;div&gt;&lt;div&gt;&lt;span style=&quot;background-color: initial;&quot;&gt;+ Constructor con todo&lt;/span&gt;&lt;/div&gt;&lt;div&gt;&lt;span style=&quot;background-color: initial;&quot;&gt;+ Constructor con nada&lt;/span&gt;&lt;/div&gt;&lt;div&gt;&lt;span style=&quot;background-color: initial;&quot;&gt;+ Getter&amp;amp;Setter&lt;/span&gt;&lt;/div&gt;&lt;div&gt;+ toString&lt;/div&gt;&lt;div&gt;+ Equals&amp;amp;HasCode: cod&lt;/div&gt;&lt;/div&gt;&lt;div&gt;&lt;br&gt;&lt;/div&gt;&lt;div&gt;&lt;br&gt;&lt;/div&gt;&lt;/div&gt;&lt;/div&gt;" style="text;strokeColor=none;fillColor=none;align=left;verticalAlign=top;spacingLeft=4;spacingRight=4;overflow=hidden;rotatable=0;points=[[0,0.5],[1,0.5]];portConstraint=eastwest;whiteSpace=wrap;html=1;" parent="v0JSW52jI6C11VRUSj4h-205" vertex="1">
          <mxGeometry y="108" width="220" height="202" as="geometry" />
        </mxCell>
        <mxCell id="v0JSW52jI6C11VRUSj4h-210" value="Jugador" style="swimlane;fontStyle=1;align=center;verticalAlign=top;childLayout=stackLayout;horizontal=1;startSize=26;horizontalStack=0;resizeParent=1;resizeParentMax=0;resizeLast=0;collapsible=1;marginBottom=0;whiteSpace=wrap;html=1;" parent="1" vertex="1">
          <mxGeometry x="-313" y="540" width="220" height="270" as="geometry" />
        </mxCell>
        <mxCell id="v0JSW52jI6C11VRUSj4h-211" value="&lt;div&gt;+ nombre: type String&lt;/div&gt;&lt;div&gt;+apel1: type String&lt;/div&gt;+ dni: type int&lt;div&gt;&lt;span style=&quot;background-color: initial;&quot;&gt;+ cod: type int&lt;/span&gt;&lt;br&gt;&lt;/div&gt;&lt;div&gt;&lt;span style=&quot;background-color: initial;&quot;&gt;+ nomEquipo:type String&lt;/span&gt;&lt;br&gt;&lt;/div&gt;&lt;div&gt;&lt;span style=&quot;background-color: initial;&quot;&gt;+ a&lt;/span&gt;&lt;span style=&quot;background-color: initial;&quot;&gt;ntigüedad:type DateTime&lt;/span&gt;&lt;br&gt;&lt;/div&gt;" style="text;strokeColor=none;fillColor=none;align=left;verticalAlign=top;spacingLeft=4;spacingRight=4;overflow=hidden;rotatable=0;points=[[0,0.5],[1,0.5]];portConstraint=eastwest;whiteSpace=wrap;html=1;" parent="v0JSW52jI6C11VRUSj4h-210" vertex="1">
          <mxGeometry y="26" width="220" height="104" as="geometry" />
        </mxCell>
        <mxCell id="v0JSW52jI6C11VRUSj4h-212" value="" style="line;strokeWidth=1;fillColor=none;align=left;verticalAlign=middle;spacingTop=-1;spacingLeft=3;spacingRight=3;rotatable=0;labelPosition=right;points=[];portConstraint=eastwest;strokeColor=inherit;" parent="v0JSW52jI6C11VRUSj4h-210" vertex="1">
          <mxGeometry y="130" width="220" height="8" as="geometry" />
        </mxCell>
        <mxCell id="v0JSW52jI6C11VRUSj4h-213" value="+ comprobarEquipo(): Type Equipo&lt;div&gt;+ altaEquipo(); type Equipo&lt;/div&gt;&lt;div&gt;+ bajaEquipo(): type Equipo&lt;/div&gt;&lt;div&gt;&lt;div&gt;&lt;span style=&quot;background-color: initial;&quot;&gt;+ Constructor con todo&lt;/span&gt;&lt;/div&gt;&lt;div&gt;&lt;span style=&quot;background-color: initial;&quot;&gt;+ Constructor con nada&lt;/span&gt;&lt;/div&gt;&lt;div&gt;&lt;span style=&quot;background-color: initial;&quot;&gt;+ Getter&amp;amp;Setter&lt;/span&gt;&lt;/div&gt;&lt;div&gt;+ toString&lt;/div&gt;&lt;div&gt;+ Equals&amp;amp;HasCode: cod&lt;/div&gt;&lt;/div&gt;" style="text;strokeColor=none;fillColor=none;align=left;verticalAlign=top;spacingLeft=4;spacingRight=4;overflow=hidden;rotatable=0;points=[[0,0.5],[1,0.5]];portConstraint=eastwest;whiteSpace=wrap;html=1;" parent="v0JSW52jI6C11VRUSj4h-210" vertex="1">
          <mxGeometry y="138" width="220" height="132" as="geometry" />
        </mxCell>
        <mxCell id="tJrxlw0aCaHrFr5OWMFE-1" value="&lt;h1 style=&quot;margin-top: 0px;&quot;&gt;&lt;/h1&gt;&lt;h2 style=&quot;text-indent:-18.0pt;mso-list:l1 level1 lfo2&quot;&gt;&lt;font style=&quot;font-size: 24px;&quot;&gt;&lt;span style=&quot;white-space: pre;&quot;&gt;&#x9;&lt;/span&gt;1.&lt;span style=&quot;font-variant-numeric: normal; font-variant-east-asian: normal; font-variant-alternates: normal; font-size-adjust: none; font-kerning: auto; font-optical-sizing: auto; font-feature-settings: normal; font-variation-settings: normal; font-variant-position: normal; font-weight: normal; font-stretch: normal; line-height: normal;&quot;&gt;&amp;nbsp;&lt;/span&gt;&lt;b style=&quot;&quot;&gt;Análisis del problema y requisitos del&amp;nbsp;sistema&lt;/b&gt;&lt;span style=&quot;text-indent: -18pt; background-color: initial; font-variant-numeric: normal; font-variant-east-asian: normal; font-variant-alternates: normal; font-size-adjust: none; font-kerning: auto; font-optical-sizing: auto; font-feature-settings: normal; font-variation-settings: normal; font-variant-position: normal; font-weight: normal; font-stretch: normal; line-height: normal;&quot;&gt;&amp;nbsp; &amp;nbsp; &amp;nbsp; &amp;nbsp;&amp;nbsp;&lt;br&gt;&lt;/span&gt;&lt;span style=&quot;white-space: pre;&quot;&gt;&#x9;&lt;/span&gt;¿Quiénes son los actores que interactúan con el&amp;nbsp;sistema?&amp;nbsp;&lt;/font&gt;&amp;nbsp;&lt;/h2&gt;&lt;h3 style=&quot;margin-left:0cm;text-indent:0cm;mso-list:l0 level4 lfo1&quot;&gt;&lt;font style=&quot;font-size: 12px;&quot; face=&quot;Helvetica&quot;&gt;&lt;font style=&quot;&quot;&gt;&lt;span style=&quot;white-space: pre;&quot;&gt;&#x9;&lt;/span&gt;&lt;span style=&quot;white-space: pre;&quot;&gt;&#x9;&lt;/span&gt;Los&amp;nbsp;administradores de los torneos y del sistema de gestión de torneos, equipos y&amp;nbsp;jugadores.&amp;nbsp;&lt;br&gt;&lt;/font&gt;&lt;span style=&quot;white-space: pre;&quot;&gt;&#x9;&lt;/span&gt;&lt;span style=&quot;white-space: pre;&quot;&gt;&#x9;&lt;/span&gt;Los&amp;nbsp;equipos que participan en el torneo.&lt;br&gt;&lt;span style=&quot;white-space: pre;&quot;&gt;&#x9;&lt;/span&gt;&lt;span style=&quot;white-space: pre;&quot;&gt;&#x9;&lt;/span&gt;Los&amp;nbsp;jugadores que forman parte de los equipos.&lt;br&gt; &lt;span style=&quot;white-space: pre;&quot;&gt;&#x9;&lt;/span&gt;&lt;span style=&quot;white-space: pre;&quot;&gt;&#x9;&lt;/span&gt;ESports&amp;nbsp;o el sistema, que es una clase padre en la que solo toman métodos y gestiona torneos,&amp;nbsp;equipos y &lt;span style=&quot;white-space: pre;&quot;&gt;&#x9;&lt;/span&gt;jugadores. El &lt;span style=&quot;white-space: pre;&quot;&gt;&#x9;&lt;/span&gt;&lt;span style=&quot;white-space: pre;&quot;&gt;&#x9;&lt;/span&gt;responsable directo es el Administrador.&lt;br&gt; &lt;span style=&quot;white-space: pre;&quot;&gt;&#x9;&lt;/span&gt;&lt;span style=&quot;white-space: pre;&quot;&gt;&#x9;&lt;/span&gt;NO&amp;nbsp;he incluido otros actores como torneo, partido/encuentro, porque no están&amp;nbsp;dentro de los requisitos&amp;nbsp;solicitados.&amp;nbsp;&lt;/font&gt;&lt;/h3&gt;" style="text;html=1;whiteSpace=wrap;overflow=hidden;rounded=0;" parent="1" vertex="1">
          <mxGeometry x="-827" y="-2290" width="787" height="200" as="geometry" />
        </mxCell>
        <mxCell id="tJrxlw0aCaHrFr5OWMFE-2" value="&lt;h1 style=&quot;margin-top: 0px;&quot;&gt;&lt;p style=&quot;text-indent:-18.0pt;mso-list:l2 level1 lfo1&quot; class=&quot;MsoListParagraph&quot;&gt;&lt;span style=&quot;white-space: pre;&quot;&gt;&#x9;&lt;/span&gt;¿Cuáles son las acciones que cada actor puede&amp;nbsp;realizar? &lt;/p&gt;&lt;/h1&gt;&lt;h3 style=&quot;text-indent:-18.0pt;mso-list:l3 level1 lfo4&quot;&gt;&lt;span style=&quot;white-space: pre;&quot;&gt;&#x9;&lt;span style=&quot;white-space: pre;&quot;&gt;&#x9;&lt;/span&gt;&lt;/span&gt;&lt;font style=&quot;font-size: 12px;&quot; face=&quot;Helvetica&quot;&gt;ADMINISTRADOR:&lt;br&gt; &lt;span style=&quot;font-variant-numeric: normal; font-variant-east-asian: normal; font-variant-alternates: normal; font-size-adjust: none; font-kerning: auto; font-optical-sizing: auto; font-feature-settings: normal; font-variation-settings: normal; font-variant-position: normal; font-weight: normal; font-stretch: normal; line-height: normal;&quot;&gt;&amp;nbsp; &amp;nbsp;&lt;span style=&quot;white-space: pre;&quot;&gt;&#x9;&lt;/span&gt;&lt;span style=&quot;white-space: pre;&quot;&gt;&#x9;&lt;span style=&quot;white-space: pre;&quot;&gt;&#x9;&lt;/span&gt;&lt;/span&gt;&lt;/span&gt;Registrar, Modificar, Buscar, Eliminar -&amp;gt; Equipo&lt;br&gt;&lt;span style=&quot;white-space: pre;&quot;&gt;&#x9;&lt;/span&gt;&lt;span style=&quot;white-space: pre;&quot;&gt;&#x9;&lt;span style=&quot;white-space: pre;&quot;&gt;&#x9;&lt;/span&gt;&lt;/span&gt;Añadir, Modificar, Buscar, Eliminar -&amp;gt; jugador&lt;br&gt;&lt;span style=&quot;white-space: pre;&quot;&gt;&#x9;&lt;/span&gt;&lt;span style=&quot;white-space: pre;&quot;&gt;&#x9;&lt;span style=&quot;white-space: pre;&quot;&gt;&#x9;&lt;/span&gt;&lt;/span&gt;Consultar, Modificar, Buscar, Eliminar -&amp;gt; en&amp;nbsp;lista de equipo y jugador&lt;br&gt;&lt;span style=&quot;white-space: pre;&quot;&gt;&#x9;&lt;/span&gt;&lt;span style=&quot;white-space: pre;&quot;&gt;&#x9;&lt;span style=&quot;white-space: pre;&quot;&gt;&#x9;&lt;/span&gt;&lt;/span&gt;Crear, Modificar, Buscar, Eliminar -&amp;gt; Torneo&lt;br&gt;&lt;span style=&quot;white-space: pre;&quot;&gt;&#x9;&lt;/span&gt;&lt;span style=&quot;white-space: pre;&quot;&gt;&#x9;&lt;span style=&quot;white-space: pre;&quot;&gt;&#x9;&lt;/span&gt;&lt;/span&gt;Crear, Modificar, Buscar, Eliminar -&amp;gt; Partido&lt;br&gt;&lt;span style=&quot;white-space: pre;&quot;&gt;&#x9;&lt;/span&gt;&lt;span style=&quot;white-space: pre;&quot;&gt;&#x9;&lt;span style=&quot;white-space: pre;&quot;&gt;&#x9;&lt;/span&gt;&lt;/span&gt;Es el único capaz de -&amp;gt; Gestionar el sistema&amp;nbsp;gestor&lt;/font&gt;&lt;/h3&gt;&lt;h3 style=&quot;text-indent:-18.0pt;mso-list:l3 level1 lfo4&quot;&gt;&lt;font style=&quot;font-size: 12px;&quot; face=&quot;Helvetica&quot;&gt;&lt;br&gt;&lt;span style=&quot;white-space: pre;&quot;&gt;&#x9;&lt;span style=&quot;white-space: pre;&quot;&gt;&#x9;&lt;/span&gt;&lt;/span&gt;EQUIPOS:&lt;br&gt; &lt;span style=&quot;white-space: pre;&quot;&gt;&#x9;&lt;/span&gt;&lt;span style=&quot;white-space: pre;&quot;&gt;&#x9;&lt;span style=&quot;white-space: pre;&quot;&gt;&#x9;&lt;/span&gt;&lt;/span&gt;Registrarse, Buscar, Dar baja -&amp;gt; Torneo&lt;br&gt;&lt;span style=&quot;white-space: pre;&quot;&gt;&#x9;&lt;/span&gt;&lt;span style=&quot;white-space: pre;&quot;&gt;&#x9;&lt;span style=&quot;white-space: pre;&quot;&gt;&#x9;&lt;/span&gt;&lt;/span&gt;Comprobar, Alta, Eliminar -&amp;gt; Jugador del equipo&lt;br&gt;&lt;span style=&quot;white-space: pre;&quot;&gt;&#x9;&lt;/span&gt;&lt;span style=&quot;white-space: pre;&quot;&gt;&#x9;&lt;span style=&quot;white-space: pre;&quot;&gt;&#x9;&lt;/span&gt;&lt;/span&gt;Buscar -&amp;gt; Partido/encuentro&lt;br&gt;&lt;span style=&quot;white-space: pre;&quot;&gt;&#x9;&lt;/span&gt;&lt;span style=&quot;white-space: pre;&quot;&gt;&#x9;&lt;span style=&quot;white-space: pre;&quot;&gt;&#x9;&lt;/span&gt;&lt;/span&gt;Modificar -&amp;gt; Equipo (por el tipo de equipamiento, por la composición con los jugadores o entrenador)&lt;/font&gt;&lt;/h3&gt;&lt;h3 style=&quot;text-indent:-18.0pt;mso-list:l3 level1 lfo4&quot;&gt;&lt;font style=&quot;font-size: 12px;&quot; face=&quot;Helvetica&quot;&gt;&lt;br&gt;&lt;span style=&quot;white-space: pre;&quot;&gt;&#x9;&lt;span style=&quot;white-space: pre;&quot;&gt;&#x9;&lt;/span&gt;&lt;/span&gt;JUGADOR:&lt;br&gt; &lt;span style=&quot;white-space: pre;&quot;&gt;&#x9;&lt;/span&gt;&lt;span style=&quot;white-space: pre;&quot;&gt;&#x9;&lt;span style=&quot;white-space: pre;&quot;&gt;&#x9;&lt;/span&gt;&lt;/span&gt;Comprobar -&amp;gt; existe equipo&lt;br&gt;&lt;span style=&quot;white-space: pre;&quot;&gt;&#x9;&lt;/span&gt;&lt;span style=&quot;white-space: pre;&quot;&gt;&#x9;&lt;span style=&quot;white-space: pre;&quot;&gt;&#x9;&lt;/span&gt;&lt;/span&gt;Darse Alta, baja -&amp;gt; de equipo&lt;br&gt;&lt;span style=&quot;white-space: pre;&quot;&gt;&lt;br&gt;&lt;/span&gt;&lt;/font&gt;&lt;/h3&gt;&lt;h3 style=&quot;text-indent:-18.0pt;mso-list:l3 level1 lfo4&quot;&gt;&lt;font style=&quot;font-size: 12px;&quot; face=&quot;Helvetica&quot;&gt;&lt;span style=&quot;white-space: pre;&quot;&gt;&#x9;&lt;span style=&quot;white-space: pre;&quot;&gt;&#x9;&lt;/span&gt;&lt;/span&gt;ESPORTS o SISTEMA GESTOR:&lt;br&gt; &lt;span style=&quot;white-space: pre;&quot;&gt;&#x9;&lt;/span&gt;&lt;span style=&quot;white-space: pre;&quot;&gt;&#x9;&lt;span style=&quot;white-space: pre;&quot;&gt;&#x9;&lt;/span&gt;&lt;/span&gt;Crear, Inscribe, Modificar, Buscar, Eliminar,&amp;nbsp;Notificar nuevo -&amp;gt; Equipo&lt;br&gt;&lt;span style=&quot;white-space: pre;&quot;&gt;&#x9;&lt;/span&gt;&lt;span style=&quot;white-space: pre;&quot;&gt;&#x9;&lt;span style=&quot;white-space: pre;&quot;&gt;&#x9;&lt;/span&gt;&lt;/span&gt;Añadir, Inscribe, Modificar, Buscar, Eliminar,&amp;nbsp;Notificar nuevo -&amp;gt; Jugador&lt;br&gt;&lt;span style=&quot;white-space: pre;&quot;&gt;&#x9;&lt;/span&gt;&lt;span style=&quot;white-space: pre;&quot;&gt;&#x9;&lt;span style=&quot;white-space: pre;&quot;&gt;&#x9;&lt;/span&gt;&lt;/span&gt;Consultar, Modificar, Buscar, Eliminar -&amp;gt; en&amp;nbsp;lista&amp;nbsp;de equipo y jugador&lt;br&gt;&lt;span style=&quot;white-space: pre;&quot;&gt;&#x9;&lt;/span&gt;&lt;span style=&quot;white-space: pre;&quot;&gt;&#x9;&lt;span style=&quot;white-space: pre;&quot;&gt;&#x9;&lt;/span&gt;&lt;/span&gt;Crear, Modificar, Buscar, Eliminar, Notificar&amp;nbsp;nuevo -&amp;gt; Torneo&lt;br&gt;&lt;span style=&quot;white-space: pre;&quot;&gt;&#x9;&lt;/span&gt;&lt;span style=&quot;white-space: pre;&quot;&gt;&#x9;&lt;span style=&quot;white-space: pre;&quot;&gt;&#x9;&lt;/span&gt;&lt;/span&gt;Crear, Modificar, Buscar, Eliminar, Notificar&amp;nbsp;nuevo -&amp;gt; Partido&lt;br&gt;&lt;span style=&quot;white-space: pre;&quot;&gt;&#x9;&lt;/span&gt;&lt;span style=&quot;white-space: pre;&quot;&gt;&#x9;&lt;span style=&quot;white-space: pre;&quot;&gt;&#x9;&lt;/span&gt;&lt;/span&gt;Añadir, Buscar, Modificar, Eliminar, Notificar&amp;nbsp;nuevo -&amp;gt; Administrador&lt;/font&gt;&lt;/h3&gt;&lt;h3 style=&quot;text-indent:-18.0pt;mso-list:l3 level1 lfo4&quot;&gt;&lt;/h3&gt;&lt;div&gt;&lt;font style=&quot;font-size: 12px;&quot; face=&quot;Helvetica&quot;&gt;&lt;br&gt;&lt;/font&gt;&lt;/div&gt;&lt;h3 style=&quot;text-indent:-18.0pt;mso-list:l3 level1 lfo4&quot;&gt;&lt;/h3&gt;" style="text;html=1;whiteSpace=wrap;overflow=hidden;rounded=0;" parent="1" vertex="1">
          <mxGeometry x="-827" y="-2061" width="827" height="551" as="geometry" />
        </mxCell>
        <mxCell id="tJrxlw0aCaHrFr5OWMFE-4" value="&lt;h1 style=&quot;margin-top: 0px;&quot;&gt;&lt;p style=&quot;text-indent:-18.0pt;mso-list:l0 level1 lfo1&quot; class=&quot;MsoListParagraph&quot;&gt;&lt;span style=&quot;font-family:Symbol;mso-fareast-font-family:Symbol;mso-bidi-font-family:&lt;br/&gt;Symbol&quot;&gt;&lt;span style=&quot;font-variant-numeric: normal; font-variant-east-asian: normal; font-variant-alternates: normal; font-size-adjust: none; font-kerning: auto; font-optical-sizing: auto; font-feature-settings: normal; font-variation-settings: normal; font-variant-position: normal; font-weight: normal; font-stretch: normal; font-size: 7pt; line-height: normal; font-family: &amp;quot;Times New Roman&amp;quot;;&quot;&gt;&lt;br&gt;&lt;/span&gt;&lt;/span&gt;&lt;span style=&quot;white-space: pre;&quot;&gt;&#x9;&lt;/span&gt;¿Cómo se relacionan entre sí las entidades del&amp;nbsp;sistema? &lt;/p&gt;&lt;p class=&quot;MsoNormal&quot;&gt;&lt;b&gt;&lt;span style=&quot;white-space: pre;&quot;&gt;&#x9;&lt;/span&gt;3. Identificación de clases y relaciones&lt;/b&gt;&lt;/p&gt;&lt;/h1&gt;&lt;h4&gt;&lt;span style=&quot;white-space: pre;&quot;&gt;&#x9;&lt;/span&gt;&lt;span style=&quot;white-space: pre;&quot;&gt;&#x9;&lt;/span&gt;&lt;font style=&quot;font-size: 12px;&quot; face=&quot;Helvetica&quot;&gt;&lt;font style=&quot;&quot;&gt;ADMINISTRADOR:&amp;nbsp;&lt;/font&gt;&lt;/font&gt;&lt;/h4&gt;&lt;h4&gt;&lt;font style=&quot;font-size: 12px;&quot; face=&quot;Helvetica&quot;&gt;&lt;font style=&quot;&quot;&gt;&lt;span style=&quot;white-space: pre;&quot;&gt;&#x9;&lt;/span&gt;&lt;span style=&quot;white-space: pre;&quot;&gt;&#x9;&lt;/span&gt;&lt;span style=&quot;white-space: pre;&quot;&gt;&#x9;&lt;/span&gt;El administrador entra en contacto directo con&amp;nbsp;&lt;/font&gt;&lt;font style=&quot;&quot;&gt;los otros tres actores ya que gestiona el sistema de gestión de &lt;span style=&quot;white-space: pre;&quot;&gt;&#x9;&lt;/span&gt;&lt;span style=&quot;white-space: pre;&quot;&gt;&#x9;&lt;/span&gt;&lt;span style=&quot;white-space: pre;&quot;&gt;&#x9;&lt;/span&gt;equipos,&amp;nbsp;&lt;/font&gt;&lt;font style=&quot;&quot;&gt;jugadores y torneos, también gestiona los equipos y sus peticiones de acciones&amp;nbsp;&lt;/font&gt;&lt;font style=&quot;&quot;&gt;y los jugadores y &lt;span style=&quot;white-space: pre;&quot;&gt;&#x9;&lt;/span&gt;&lt;span style=&quot;white-space: pre;&quot;&gt;&#x9;&lt;span style=&quot;white-space: pre;&quot;&gt;&#x9;&lt;/span&gt;&lt;/span&gt;sus peticiones.&lt;br&gt;&lt;/font&gt;&lt;font style=&quot;&quot;&gt;&lt;span style=&quot;white-space: pre;&quot;&gt;&#x9;&lt;/span&gt;&lt;span style=&quot;white-space: pre;&quot;&gt;&#x9;&lt;span style=&quot;white-space: pre;&quot;&gt;&#x9;&lt;/span&gt;&lt;/span&gt;&lt;/font&gt;La relación que existe entre Administrador y ESports, que es una interface, es de COMPOSICIÓN, puesto que para &lt;span style=&quot;white-space: pre;&quot;&gt;&#x9;&lt;/span&gt;&lt;span style=&quot;white-space: pre;&quot;&gt;&#x9;&lt;/span&gt;&lt;span style=&quot;white-space: pre;&quot;&gt;&#x9;&lt;/span&gt;que el administrador es parte&amp;nbsp;indispensable de la aplicación, ya que sin él no se podría gestionar la aplicación.&lt;/font&gt;&lt;/h4&gt;" style="text;html=1;whiteSpace=wrap;overflow=hidden;rounded=0;" parent="1" vertex="1">
          <mxGeometry x="-827" y="-1510" width="750" height="280" as="geometry" />
        </mxCell>
        <mxCell id="tJrxlw0aCaHrFr5OWMFE-5" value="&lt;h3 style=&quot;margin-top: 0px;&quot;&gt;&lt;span style=&quot;line-height: 115%;&quot;&gt;&lt;font style=&quot;font-size: 12px;&quot;&gt;La&amp;nbsp;relación que existe entre Administrador y Equipo es de ASOCIACIÓN, ya que&amp;nbsp;existe una relación estructural entre objetos de esas clases.&amp;nbsp; Al igual que ocurre entre administrador y&amp;nbsp;Jugador.&amp;nbsp;&lt;/font&gt;&lt;/span&gt;&lt;/h3&gt;" style="text;html=1;whiteSpace=wrap;overflow=hidden;rounded=0;" parent="1" vertex="1">
          <mxGeometry x="-738" y="-670" width="688" height="50" as="geometry" />
        </mxCell>
        <mxCell id="tJrxlw0aCaHrFr5OWMFE-6" value="&lt;h1 style=&quot;margin-top: 0px;&quot;&gt;&lt;/h1&gt;&lt;h3&gt;&lt;font style=&quot;font-size: 12px;&quot;&gt;EQUIPO:&amp;nbsp;&lt;/font&gt;&lt;/h3&gt;&lt;h3&gt;&lt;font style=&quot;font-size: 12px;&quot;&gt;&lt;span style=&quot;white-space: pre;&quot;&gt;&#x9;&lt;/span&gt;Los equipos entran en contacto directo con el&amp;nbsp;administrador, que gestiona sus peticiones los jugadores y con los &lt;span style=&quot;white-space: pre;&quot;&gt;&#x9;&lt;/span&gt;jugadores&amp;nbsp;que forman parte del equipo.&amp;nbsp;La relación que se da entre Jugador y Equipo es de DEPENDECIA, ya que no hay &lt;span style=&quot;white-space: pre;&quot;&gt;&#x9;&lt;/span&gt;equipo si no tiene jugadores.&amp;nbsp;&lt;/font&gt;&lt;/h3&gt;" style="text;html=1;whiteSpace=wrap;overflow=hidden;rounded=0;" parent="1" vertex="1">
          <mxGeometry x="-770" y="365" width="740" height="105" as="geometry" />
        </mxCell>
        <mxCell id="tJrxlw0aCaHrFr5OWMFE-7" value="&lt;h1 style=&quot;margin-top: 0px;&quot;&gt;&lt;/h1&gt;&lt;h3&gt;&lt;font style=&quot;font-size: 12px;&quot;&gt;Y como he comentado anteriormente, la relación que se da entre Administrador y Equipo es de ASOCIACIÓN.&amp;nbsp;&lt;/font&gt;&lt;/h3&gt;" style="text;html=1;whiteSpace=wrap;overflow=hidden;rounded=0;" parent="1" vertex="1">
          <mxGeometry x="-750" y="852" width="730" height="48" as="geometry" />
        </mxCell>
        <mxCell id="tJrxlw0aCaHrFr5OWMFE-8" value="Equipo" style="swimlane;fontStyle=1;align=center;verticalAlign=top;childLayout=stackLayout;horizontal=1;startSize=26;horizontalStack=0;resizeParent=1;resizeParentMax=0;resizeLast=0;collapsible=1;marginBottom=0;whiteSpace=wrap;html=1;" parent="1" vertex="1">
          <mxGeometry x="-750" y="1000" width="220" height="310" as="geometry" />
        </mxCell>
        <mxCell id="tJrxlw0aCaHrFr5OWMFE-9" value="+ nomEquipo: type String&lt;div&gt;+ ciudad: type String&lt;br&gt;&lt;/div&gt;&lt;div&gt;&lt;div&gt;&lt;span style=&quot;background-color: initial;&quot;&gt;+ Cod: type int&lt;/span&gt;&lt;br&gt;&lt;/div&gt;&lt;div&gt;&lt;span style=&quot;background-color: initial;&quot;&gt;+ Antigüedad:type DateTime&lt;/span&gt;&lt;br&gt;&lt;/div&gt;&lt;/div&gt;" style="text;strokeColor=none;fillColor=none;align=left;verticalAlign=top;spacingLeft=4;spacingRight=4;overflow=hidden;rotatable=0;points=[[0,0.5],[1,0.5]];portConstraint=eastwest;whiteSpace=wrap;html=1;" parent="tJrxlw0aCaHrFr5OWMFE-8" vertex="1">
          <mxGeometry y="26" width="220" height="74" as="geometry" />
        </mxCell>
        <mxCell id="tJrxlw0aCaHrFr5OWMFE-10" value="" style="line;strokeWidth=1;fillColor=none;align=left;verticalAlign=middle;spacingTop=-1;spacingLeft=3;spacingRight=3;rotatable=0;labelPosition=right;points=[];portConstraint=eastwest;strokeColor=inherit;" parent="tJrxlw0aCaHrFr5OWMFE-8" vertex="1">
          <mxGeometry y="100" width="220" height="8" as="geometry" />
        </mxCell>
        <mxCell id="tJrxlw0aCaHrFr5OWMFE-11" value="+ registrarTorneo(): Type Torneo&lt;div&gt;+ buscarTorneo(): type Torneo&lt;/div&gt;&lt;div&gt;+ bajaTorneo(): type Torneo&lt;br&gt;&lt;div&gt;+ comprobarJugador(): type Jugador&lt;div&gt;+ altaJugador(); type Jugador&lt;/div&gt;&lt;div&gt;+ eliminarJugador(): Type Jugador&lt;/div&gt;&lt;div&gt;+ buscarPartido(): Type Partido&lt;/div&gt;&lt;div&gt;+modificarEquipo(): Type Equipo&lt;/div&gt;&lt;div&gt;&lt;div&gt;&lt;span style=&quot;background-color: initial;&quot;&gt;+ Constructor con todo&lt;/span&gt;&lt;/div&gt;&lt;div&gt;&lt;span style=&quot;background-color: initial;&quot;&gt;+ Constructor con nada&lt;/span&gt;&lt;/div&gt;&lt;div&gt;&lt;span style=&quot;background-color: initial;&quot;&gt;+ Getter&amp;amp;Setter&lt;/span&gt;&lt;/div&gt;&lt;div&gt;+ toString&lt;/div&gt;&lt;div&gt;+ Equals&amp;amp;HasCode: cod&lt;/div&gt;&lt;/div&gt;&lt;div&gt;&lt;br&gt;&lt;/div&gt;&lt;div&gt;&lt;br&gt;&lt;/div&gt;&lt;/div&gt;&lt;/div&gt;" style="text;strokeColor=none;fillColor=none;align=left;verticalAlign=top;spacingLeft=4;spacingRight=4;overflow=hidden;rotatable=0;points=[[0,0.5],[1,0.5]];portConstraint=eastwest;whiteSpace=wrap;html=1;" parent="tJrxlw0aCaHrFr5OWMFE-8" vertex="1">
          <mxGeometry y="108" width="220" height="202" as="geometry" />
        </mxCell>
        <mxCell id="tJrxlw0aCaHrFr5OWMFE-12" value="Administrador" style="swimlane;fontStyle=1;align=center;verticalAlign=top;childLayout=stackLayout;horizontal=1;startSize=26;horizontalStack=0;resizeParent=1;resizeParentMax=0;resizeLast=0;collapsible=1;marginBottom=0;whiteSpace=wrap;html=1;" parent="1" vertex="1">
          <mxGeometry x="-323" y="940" width="220" height="430" as="geometry" />
        </mxCell>
        <mxCell id="tJrxlw0aCaHrFr5OWMFE-13" value="+ nombre: type String&lt;div&gt;&lt;div&gt;+ apel1: type String&lt;br&gt;&lt;/div&gt;&lt;/div&gt;&lt;div&gt;&lt;span style=&quot;background-color: initial;&quot;&gt;+ dni: type int&lt;/span&gt;&lt;br&gt;&lt;/div&gt;&lt;div&gt;&lt;div&gt;&lt;span style=&quot;background-color: initial;&quot;&gt;+ cod: type int&lt;/span&gt;&lt;br&gt;&lt;/div&gt;&lt;div&gt;&lt;span style=&quot;background-color: initial;&quot;&gt;+ antigüedad:type DateTime&lt;/span&gt;&lt;br&gt;&lt;/div&gt;&lt;/div&gt;" style="text;strokeColor=none;fillColor=none;align=left;verticalAlign=top;spacingLeft=4;spacingRight=4;overflow=hidden;rotatable=0;points=[[0,0.5],[1,0.5]];portConstraint=eastwest;whiteSpace=wrap;html=1;" parent="tJrxlw0aCaHrFr5OWMFE-12" vertex="1">
          <mxGeometry y="26" width="220" height="84" as="geometry" />
        </mxCell>
        <mxCell id="tJrxlw0aCaHrFr5OWMFE-14" value="" style="line;strokeWidth=1;fillColor=none;align=left;verticalAlign=middle;spacingTop=-1;spacingLeft=3;spacingRight=3;rotatable=0;labelPosition=right;points=[];portConstraint=eastwest;strokeColor=inherit;" parent="tJrxlw0aCaHrFr5OWMFE-12" vertex="1">
          <mxGeometry y="110" width="220" height="8" as="geometry" />
        </mxCell>
        <mxCell id="tJrxlw0aCaHrFr5OWMFE-15" value="+ registrarEquipo():type Equipo&lt;div&gt;&lt;span style=&quot;background-color: initial;&quot;&gt;+ modificarEquipo():type Equipo&lt;/span&gt;&lt;br&gt;&lt;/div&gt;&lt;div&gt;&lt;span style=&quot;background-color: initial;&quot;&gt;+ buscarEquipo():type Equipo&lt;/span&gt;&lt;br&gt;&lt;/div&gt;&lt;div&gt;&lt;span style=&quot;background-color: initial;&quot;&gt;+ eliminarEquipo():type Equipo&lt;/span&gt;&lt;/div&gt;&lt;div&gt;+ registrarJugador():type Jugador&lt;div&gt;&lt;span style=&quot;background-color: initial;&quot;&gt;+ modificarJugador():type&amp;nbsp;&lt;/span&gt;&lt;span style=&quot;background-color: initial;&quot;&gt;Jugador&lt;/span&gt;&lt;br&gt;&lt;/div&gt;&lt;div&gt;&lt;span style=&quot;background-color: initial;&quot;&gt;+ buscarJugador():type&amp;nbsp;&lt;/span&gt;&lt;span style=&quot;background-color: initial;&quot;&gt;Jugador&lt;/span&gt;&lt;br&gt;&lt;/div&gt;&lt;div&gt;&lt;span style=&quot;background-color: initial;&quot;&gt;+ eliminarJugador():type&amp;nbsp;&lt;/span&gt;&lt;span style=&quot;background-color: initial;&quot;&gt;Jugador&lt;/span&gt;&lt;br&gt;&lt;/div&gt;&lt;div&gt;+ crearTorneo():type Torneo&lt;div&gt;&lt;span style=&quot;background-color: initial;&quot;&gt;+ modificarTorneo():type&amp;nbsp;&lt;/span&gt;&lt;span style=&quot;background-color: initial;&quot;&gt;Torneo&lt;/span&gt;&lt;br&gt;&lt;/div&gt;&lt;div&gt;&lt;span style=&quot;background-color: initial;&quot;&gt;+ buscarTorneo():type&amp;nbsp;&lt;/span&gt;&lt;span style=&quot;background-color: initial;&quot;&gt;Torneo&lt;/span&gt;&lt;br&gt;&lt;/div&gt;&lt;div&gt;&lt;span style=&quot;background-color: initial;&quot;&gt;+ eliminarTorneo():type&amp;nbsp;&lt;/span&gt;&lt;span style=&quot;background-color: initial;&quot;&gt;Torneo&lt;/span&gt;&lt;br&gt;&lt;/div&gt;&lt;div&gt;&lt;span style=&quot;background-color: initial;&quot;&gt;+ crearPartido():type Partido&lt;/span&gt;&lt;/div&gt;&lt;/div&gt;&lt;/div&gt;&lt;div&gt;&lt;div&gt;&lt;span style=&quot;background-color: initial;&quot;&gt;+ modificarTorneo():type&amp;nbsp;&lt;/span&gt;&lt;span style=&quot;background-color: initial;&quot;&gt;Torneo&lt;/span&gt;&lt;br&gt;&lt;/div&gt;&lt;div&gt;&lt;span style=&quot;background-color: initial;&quot;&gt;+ buscarTorneo():type&amp;nbsp;&lt;/span&gt;&lt;span style=&quot;background-color: initial;&quot;&gt;Torneo&lt;/span&gt;&lt;br&gt;&lt;/div&gt;&lt;div&gt;&lt;span style=&quot;background-color: initial;&quot;&gt;+ eliminarTorneo():type&amp;nbsp;&lt;/span&gt;&lt;span style=&quot;background-color: initial;&quot;&gt;Torneo&lt;/span&gt;&lt;/div&gt;&lt;/div&gt;&lt;div&gt;&lt;div&gt;&lt;span style=&quot;background-color: initial;&quot;&gt;+ Constructor con todo&lt;/span&gt;&lt;/div&gt;&lt;div&gt;&lt;span style=&quot;background-color: initial;&quot;&gt;+ Constructor con nada&lt;/span&gt;&lt;/div&gt;&lt;div&gt;&lt;span style=&quot;background-color: initial;&quot;&gt;+ Getter&amp;amp;Setter&lt;/span&gt;&lt;/div&gt;&lt;div&gt;+ toString&lt;/div&gt;&lt;div&gt;+ Equals&amp;amp;HasCode: cod&lt;/div&gt;&lt;/div&gt;" style="text;strokeColor=none;fillColor=none;align=left;verticalAlign=top;spacingLeft=4;spacingRight=4;overflow=hidden;rotatable=0;points=[[0,0.5],[1,0.5]];portConstraint=eastwest;whiteSpace=wrap;html=1;" parent="tJrxlw0aCaHrFr5OWMFE-12" vertex="1">
          <mxGeometry y="118" width="220" height="312" as="geometry" />
        </mxCell>
        <mxCell id="tJrxlw0aCaHrFr5OWMFE-16" value="" style="endArrow=none;html=1;rounded=0;exitX=1.004;exitY=0.246;exitDx=0;exitDy=0;exitPerimeter=0;entryX=-0.007;entryY=0.323;entryDx=0;entryDy=0;entryPerimeter=0;" parent="1" source="tJrxlw0aCaHrFr5OWMFE-11" target="tJrxlw0aCaHrFr5OWMFE-15" edge="1">
          <mxGeometry width="50" height="50" relative="1" as="geometry">
            <mxPoint x="-533" y="1155.47" as="sourcePoint" />
            <mxPoint x="-323" y="1154.47" as="targetPoint" />
          </mxGeometry>
        </mxCell>
        <mxCell id="tJrxlw0aCaHrFr5OWMFE-17" value="&lt;h1 style=&quot;margin-top: 0px;&quot;&gt;&lt;/h1&gt;&lt;h3&gt;JUGADOR:&amp;nbsp;&lt;/h3&gt;&lt;h3&gt;&lt;font style=&quot;font-size: 12px;&quot; face=&quot;Helvetica&quot;&gt;&lt;span style=&quot;white-space: pre;&quot;&gt;&#x9;&lt;/span&gt;Los jugadores entran en contacto exclusivamente con&amp;nbsp;los equipos, que son los que gestionan sus peticiones.&amp;nbsp;&lt;/font&gt;&lt;/h3&gt;" style="text;html=1;whiteSpace=wrap;overflow=hidden;rounded=0;" parent="1" vertex="1">
          <mxGeometry x="-770" y="1440" width="720" height="80" as="geometry" />
        </mxCell>
        <mxCell id="tJrxlw0aCaHrFr5OWMFE-19" value="Equipo" style="swimlane;fontStyle=1;align=center;verticalAlign=top;childLayout=stackLayout;horizontal=1;startSize=26;horizontalStack=0;resizeParent=1;resizeParentMax=0;resizeLast=0;collapsible=1;marginBottom=0;whiteSpace=wrap;html=1;" parent="1" vertex="1">
          <mxGeometry x="-323" y="1560" width="220" height="310" as="geometry" />
        </mxCell>
        <mxCell id="tJrxlw0aCaHrFr5OWMFE-20" value="+ nomEquipo: type String&lt;div&gt;+ ciudad: type String&lt;br&gt;&lt;/div&gt;&lt;div&gt;&lt;div&gt;&lt;span style=&quot;background-color: initial;&quot;&gt;+ Cod: type int&lt;/span&gt;&lt;br&gt;&lt;/div&gt;&lt;div&gt;&lt;span style=&quot;background-color: initial;&quot;&gt;+ Antigüedad:type DateTime&lt;/span&gt;&lt;br&gt;&lt;/div&gt;&lt;/div&gt;" style="text;strokeColor=none;fillColor=none;align=left;verticalAlign=top;spacingLeft=4;spacingRight=4;overflow=hidden;rotatable=0;points=[[0,0.5],[1,0.5]];portConstraint=eastwest;whiteSpace=wrap;html=1;" parent="tJrxlw0aCaHrFr5OWMFE-19" vertex="1">
          <mxGeometry y="26" width="220" height="74" as="geometry" />
        </mxCell>
        <mxCell id="tJrxlw0aCaHrFr5OWMFE-21" value="" style="line;strokeWidth=1;fillColor=none;align=left;verticalAlign=middle;spacingTop=-1;spacingLeft=3;spacingRight=3;rotatable=0;labelPosition=right;points=[];portConstraint=eastwest;strokeColor=inherit;" parent="tJrxlw0aCaHrFr5OWMFE-19" vertex="1">
          <mxGeometry y="100" width="220" height="8" as="geometry" />
        </mxCell>
        <mxCell id="tJrxlw0aCaHrFr5OWMFE-22" value="+ registrarTorneo(): Type Torneo&lt;div&gt;+ buscarTorneo(): type Torneo&lt;/div&gt;&lt;div&gt;+ bajaTorneo(): type Torneo&lt;br&gt;&lt;div&gt;+ comprobarJugador(): type Jugador&lt;div&gt;+ altaJugador(); type Jugador&lt;/div&gt;&lt;div&gt;+ eliminarJugador(): Type Jugador&lt;/div&gt;&lt;div&gt;+ buscarPartido(): Type Partido&lt;/div&gt;&lt;div&gt;+modificarEquipo(): Type Equipo&lt;/div&gt;&lt;div&gt;&lt;div&gt;&lt;span style=&quot;background-color: initial;&quot;&gt;+ Constructor con todo&lt;/span&gt;&lt;/div&gt;&lt;div&gt;&lt;span style=&quot;background-color: initial;&quot;&gt;+ Constructor con nada&lt;/span&gt;&lt;/div&gt;&lt;div&gt;&lt;span style=&quot;background-color: initial;&quot;&gt;+ Getter&amp;amp;Setter&lt;/span&gt;&lt;/div&gt;&lt;div&gt;+ toString&lt;/div&gt;&lt;div&gt;+ Equals&amp;amp;HasCode: cod&lt;/div&gt;&lt;/div&gt;&lt;div&gt;&lt;br&gt;&lt;/div&gt;&lt;div&gt;&lt;br&gt;&lt;/div&gt;&lt;/div&gt;&lt;/div&gt;" style="text;strokeColor=none;fillColor=none;align=left;verticalAlign=top;spacingLeft=4;spacingRight=4;overflow=hidden;rotatable=0;points=[[0,0.5],[1,0.5]];portConstraint=eastwest;whiteSpace=wrap;html=1;" parent="tJrxlw0aCaHrFr5OWMFE-19" vertex="1">
          <mxGeometry y="108" width="220" height="202" as="geometry" />
        </mxCell>
        <mxCell id="tJrxlw0aCaHrFr5OWMFE-23" value="Jugador" style="swimlane;fontStyle=1;align=center;verticalAlign=top;childLayout=stackLayout;horizontal=1;startSize=26;horizontalStack=0;resizeParent=1;resizeParentMax=0;resizeLast=0;collapsible=1;marginBottom=0;whiteSpace=wrap;html=1;" parent="1" vertex="1">
          <mxGeometry x="-750" y="1590" width="220" height="270" as="geometry" />
        </mxCell>
        <mxCell id="tJrxlw0aCaHrFr5OWMFE-24" value="&lt;div&gt;+ nombre: type String&lt;/div&gt;&lt;div&gt;+apel1: type String&lt;/div&gt;+ dni: type int&lt;div&gt;&lt;span style=&quot;background-color: initial;&quot;&gt;+ cod: type int&lt;/span&gt;&lt;br&gt;&lt;/div&gt;&lt;div&gt;&lt;span style=&quot;background-color: initial;&quot;&gt;+ nomEquipo:type String&lt;/span&gt;&lt;br&gt;&lt;/div&gt;&lt;div&gt;&lt;span style=&quot;background-color: initial;&quot;&gt;+ a&lt;/span&gt;&lt;span style=&quot;background-color: initial;&quot;&gt;ntigüedad:type DateTime&lt;/span&gt;&lt;br&gt;&lt;/div&gt;" style="text;strokeColor=none;fillColor=none;align=left;verticalAlign=top;spacingLeft=4;spacingRight=4;overflow=hidden;rotatable=0;points=[[0,0.5],[1,0.5]];portConstraint=eastwest;whiteSpace=wrap;html=1;" parent="tJrxlw0aCaHrFr5OWMFE-23" vertex="1">
          <mxGeometry y="26" width="220" height="104" as="geometry" />
        </mxCell>
        <mxCell id="tJrxlw0aCaHrFr5OWMFE-25" value="" style="line;strokeWidth=1;fillColor=none;align=left;verticalAlign=middle;spacingTop=-1;spacingLeft=3;spacingRight=3;rotatable=0;labelPosition=right;points=[];portConstraint=eastwest;strokeColor=inherit;" parent="tJrxlw0aCaHrFr5OWMFE-23" vertex="1">
          <mxGeometry y="130" width="220" height="8" as="geometry" />
        </mxCell>
        <mxCell id="tJrxlw0aCaHrFr5OWMFE-26" value="+ comprobarEquipo(): Type Equipo&lt;div&gt;+ altaEquipo(); type Equipo&lt;/div&gt;&lt;div&gt;+ bajaEquipo(): type Equipo&lt;/div&gt;&lt;div&gt;&lt;div&gt;&lt;span style=&quot;background-color: initial;&quot;&gt;+ Constructor con todo&lt;/span&gt;&lt;/div&gt;&lt;div&gt;&lt;span style=&quot;background-color: initial;&quot;&gt;+ Constructor con nada&lt;/span&gt;&lt;/div&gt;&lt;div&gt;&lt;span style=&quot;background-color: initial;&quot;&gt;+ Getter&amp;amp;Setter&lt;/span&gt;&lt;/div&gt;&lt;div&gt;+ toString&lt;/div&gt;&lt;div&gt;+ Equals&amp;amp;HasCode: cod&lt;/div&gt;&lt;/div&gt;" style="text;strokeColor=none;fillColor=none;align=left;verticalAlign=top;spacingLeft=4;spacingRight=4;overflow=hidden;rotatable=0;points=[[0,0.5],[1,0.5]];portConstraint=eastwest;whiteSpace=wrap;html=1;" parent="tJrxlw0aCaHrFr5OWMFE-23" vertex="1">
          <mxGeometry y="138" width="220" height="132" as="geometry" />
        </mxCell>
        <mxCell id="tJrxlw0aCaHrFr5OWMFE-18" value="" style="endArrow=none;dashed=1;html=1;rounded=0;entryX=1;entryY=0.726;entryDx=0;entryDy=0;startArrow=open;startFill=0;fontStyle=1;exitX=-0.002;exitY=0.129;exitDx=0;exitDy=0;exitPerimeter=0;entryPerimeter=0;" parent="1" source="tJrxlw0aCaHrFr5OWMFE-22" target="tJrxlw0aCaHrFr5OWMFE-24" edge="1">
          <mxGeometry width="50" height="50" relative="1" as="geometry">
            <mxPoint x="-477" y="2094" as="sourcePoint" />
            <mxPoint x="-567" y="2134" as="targetPoint" />
          </mxGeometry>
        </mxCell>
        <mxCell id="tJrxlw0aCaHrFr5OWMFE-27" value="&lt;h1 style=&quot;margin-top: 0px;&quot;&gt;&lt;/h1&gt;&lt;h3&gt;SISTEMA GESTOR DE TORNEOS, EQUIPOS Y JUGADORES:&amp;nbsp;&lt;/h3&gt;&lt;h3&gt;&lt;font style=&quot;font-size: 12px;&quot;&gt;&lt;span style=&quot;white-space: pre;&quot;&gt;&#x9;&lt;/span&gt;entra encontacto directo con los administradores, que son lo que gestionan el propio&amp;nbsp;sistema, pero también entran en &lt;span style=&quot;white-space: pre;&quot;&gt;&#x9;&lt;/span&gt;contacto indirecto con los equipos y jugadores&amp;nbsp;ya que estos son gestionados por el sistema.&amp;nbsp;&lt;/font&gt;&lt;/h3&gt;" style="text;html=1;whiteSpace=wrap;overflow=hidden;rounded=0;" parent="1" vertex="1">
          <mxGeometry x="-770" y="1920" width="710" height="90" as="geometry" />
        </mxCell>
        <mxCell id="tJrxlw0aCaHrFr5OWMFE-28" value="&lt;p style=&quot;margin:0px;margin-top:4px;text-align:center;&quot;&gt;&lt;i&gt;&amp;lt;&amp;lt;Interface&amp;gt;&amp;gt;&lt;/i&gt;&lt;br&gt;&lt;b&gt;eSports&lt;/b&gt;&lt;/p&gt;&lt;hr size=&quot;1&quot; style=&quot;border-style:solid;&quot;&gt;&lt;p style=&quot;margin:0px;margin-left:4px;&quot;&gt;&amp;nbsp;-List&amp;lt;Equipos&amp;gt;&lt;/p&gt;&lt;div&gt;&amp;nbsp; -List&amp;lt;Jugadores&amp;gt;&lt;/div&gt;&lt;div&gt;&amp;nbsp; -List&amp;lt;Torneo&amp;gt;&lt;/div&gt;&lt;div&gt;&amp;nbsp; -List&amp;lt;Partidos&amp;gt;&lt;/div&gt;&lt;hr size=&quot;1&quot; style=&quot;border-style:solid;&quot;&gt;&lt;p style=&quot;margin:0px;margin-left:4px;&quot;&gt;+ crear Equipo(): type Equipo&lt;/p&gt;&lt;div&gt;&amp;nbsp;+ crear Jugador(): type Jugador&lt;/div&gt;&lt;div&gt;&amp;nbsp;+ crear Torneo(): type Torneo&lt;/div&gt;&lt;div&gt;&amp;nbsp;+ crear Partido():type Partido&lt;/div&gt;&lt;div&gt;&amp;nbsp;+ inscribe EquipoTorneo(): type boolean&lt;/div&gt;&lt;div&gt;&amp;nbsp;+ inscribe JugadorEquipo():type boolean&lt;/div&gt;&lt;div&gt;&amp;nbsp;+ buscar Equipo(): type Equipo&lt;/div&gt;&lt;div&gt;&amp;nbsp;+ buscar Jugador(): type Jugador&lt;/div&gt;&lt;div&gt;&amp;nbsp;+ buscar Torneo(): type Torneo&lt;/div&gt;&lt;div&gt;&amp;nbsp;+ buscar Partido(): type Partido&lt;/div&gt;&lt;div&gt;&amp;nbsp;+ modificar Equipo():type Equipo&lt;/div&gt;&lt;div&gt;&amp;nbsp;+ modificar Jugador(): type Jugador&lt;/div&gt;&lt;div&gt;&amp;nbsp;+ modificar Torneo(): type Torneo&lt;/div&gt;&lt;div&gt;&amp;nbsp;+ modificar Partido():type Partido&lt;/div&gt;&lt;div&gt;&amp;nbsp;+ eliminar Equipo():type Equipo&lt;/div&gt;&lt;div&gt;&amp;nbsp;+ eliminar Jugador():type Jugador&lt;br&gt;&lt;/div&gt;&lt;div&gt;&amp;nbsp;+ eliminar Torneo():type Torneo&lt;br&gt;&lt;/div&gt;&lt;div&gt;&amp;nbsp;+ eliminar Partido():type Partido&lt;br&gt;&lt;/div&gt;&lt;div&gt;&lt;br&gt;&lt;/div&gt;&lt;div&gt;&lt;span style=&quot;background-color: initial;&quot;&gt;&amp;nbsp;- notifficarNuevoEquipo() type boolean&lt;/span&gt;&lt;br&gt;&lt;/div&gt;&lt;div&gt;&amp;nbsp;- notificarNuevoJugador() type boolean&lt;br&gt;&lt;/div&gt;&lt;div&gt;&amp;nbsp;- notificarNuevoTorneo() type boolean&lt;br&gt;&lt;/div&gt;&lt;div&gt;&amp;nbsp;- notificarNuevoPartido() type boolean&lt;br&gt;&lt;/div&gt;&lt;div&gt;&amp;nbsp;&lt;/div&gt;&lt;div&gt;&lt;br&gt;&lt;/div&gt;" style="verticalAlign=top;align=left;overflow=fill;html=1;whiteSpace=wrap;" parent="1" vertex="1">
          <mxGeometry x="-770" y="2040" width="240" height="470" as="geometry" />
        </mxCell>
        <mxCell id="tJrxlw0aCaHrFr5OWMFE-29" value="Administrador" style="swimlane;fontStyle=1;align=center;verticalAlign=top;childLayout=stackLayout;horizontal=1;startSize=26;horizontalStack=0;resizeParent=1;resizeParentMax=0;resizeLast=0;collapsible=1;marginBottom=0;whiteSpace=wrap;html=1;" parent="1" vertex="1">
          <mxGeometry x="-330" y="2060" width="220" height="440" as="geometry" />
        </mxCell>
        <mxCell id="tJrxlw0aCaHrFr5OWMFE-30" value="+ nombre: type String&lt;div&gt;&lt;div&gt;+ apel1: type String&lt;br&gt;&lt;/div&gt;&lt;/div&gt;&lt;div&gt;&lt;span style=&quot;background-color: initial;&quot;&gt;+ dni: type int&lt;/span&gt;&lt;br&gt;&lt;/div&gt;&lt;div&gt;&lt;div&gt;&lt;span style=&quot;background-color: initial;&quot;&gt;+ cod: type int&lt;/span&gt;&lt;br&gt;&lt;/div&gt;&lt;div&gt;&lt;span style=&quot;background-color: initial;&quot;&gt;+ antigüedad:type DateTime&lt;/span&gt;&lt;br&gt;&lt;/div&gt;&lt;/div&gt;" style="text;strokeColor=none;fillColor=none;align=left;verticalAlign=top;spacingLeft=4;spacingRight=4;overflow=hidden;rotatable=0;points=[[0,0.5],[1,0.5]];portConstraint=eastwest;whiteSpace=wrap;html=1;" parent="tJrxlw0aCaHrFr5OWMFE-29" vertex="1">
          <mxGeometry y="26" width="220" height="84" as="geometry" />
        </mxCell>
        <mxCell id="tJrxlw0aCaHrFr5OWMFE-31" value="" style="line;strokeWidth=1;fillColor=none;align=left;verticalAlign=middle;spacingTop=-1;spacingLeft=3;spacingRight=3;rotatable=0;labelPosition=right;points=[];portConstraint=eastwest;strokeColor=inherit;" parent="tJrxlw0aCaHrFr5OWMFE-29" vertex="1">
          <mxGeometry y="110" width="220" height="8" as="geometry" />
        </mxCell>
        <mxCell id="tJrxlw0aCaHrFr5OWMFE-32" value="+ registrarEquipo():type Equipo&lt;div&gt;&lt;span style=&quot;background-color: initial;&quot;&gt;+ modificarEquipo():type Equipo&lt;/span&gt;&lt;br&gt;&lt;/div&gt;&lt;div&gt;&lt;span style=&quot;background-color: initial;&quot;&gt;+ buscarEquipo():type Equipo&lt;/span&gt;&lt;br&gt;&lt;/div&gt;&lt;div&gt;&lt;span style=&quot;background-color: initial;&quot;&gt;+ eliminarEquipo():type Equipo&lt;/span&gt;&lt;/div&gt;&lt;div&gt;+ registrarJugador():type Jugador&lt;div&gt;&lt;span style=&quot;background-color: initial;&quot;&gt;+ modificarJugador():type&amp;nbsp;&lt;/span&gt;&lt;span style=&quot;background-color: initial;&quot;&gt;Jugador&lt;/span&gt;&lt;br&gt;&lt;/div&gt;&lt;div&gt;&lt;span style=&quot;background-color: initial;&quot;&gt;+ buscarJugador():type&amp;nbsp;&lt;/span&gt;&lt;span style=&quot;background-color: initial;&quot;&gt;Jugador&lt;/span&gt;&lt;br&gt;&lt;/div&gt;&lt;div&gt;&lt;span style=&quot;background-color: initial;&quot;&gt;+ eliminarJugador():type&amp;nbsp;&lt;/span&gt;&lt;span style=&quot;background-color: initial;&quot;&gt;Jugador&lt;/span&gt;&lt;br&gt;&lt;/div&gt;&lt;div&gt;+ crearTorneo():type Torneo&lt;div&gt;&lt;span style=&quot;background-color: initial;&quot;&gt;+ modificarTorneo():type&amp;nbsp;&lt;/span&gt;&lt;span style=&quot;background-color: initial;&quot;&gt;Torneo&lt;/span&gt;&lt;br&gt;&lt;/div&gt;&lt;div&gt;&lt;span style=&quot;background-color: initial;&quot;&gt;+ buscarTorneo():type&amp;nbsp;&lt;/span&gt;&lt;span style=&quot;background-color: initial;&quot;&gt;Torneo&lt;/span&gt;&lt;br&gt;&lt;/div&gt;&lt;div&gt;&lt;span style=&quot;background-color: initial;&quot;&gt;+ eliminarTorneo():type&amp;nbsp;&lt;/span&gt;&lt;span style=&quot;background-color: initial;&quot;&gt;Torneo&lt;/span&gt;&lt;br&gt;&lt;/div&gt;&lt;div&gt;&lt;span style=&quot;background-color: initial;&quot;&gt;+ crearPartido():type Partido&lt;/span&gt;&lt;/div&gt;&lt;/div&gt;&lt;/div&gt;&lt;div&gt;&lt;div&gt;&lt;span style=&quot;background-color: initial;&quot;&gt;+ modificarTorneo():type&amp;nbsp;&lt;/span&gt;&lt;span style=&quot;background-color: initial;&quot;&gt;Torneo&lt;/span&gt;&lt;br&gt;&lt;/div&gt;&lt;div&gt;&lt;span style=&quot;background-color: initial;&quot;&gt;+ buscarTorneo():type&amp;nbsp;&lt;/span&gt;&lt;span style=&quot;background-color: initial;&quot;&gt;Torneo&lt;/span&gt;&lt;br&gt;&lt;/div&gt;&lt;div&gt;&lt;span style=&quot;background-color: initial;&quot;&gt;+ eliminarTorneo():type&amp;nbsp;&lt;/span&gt;&lt;span style=&quot;background-color: initial;&quot;&gt;Torneo&lt;/span&gt;&lt;/div&gt;&lt;/div&gt;&lt;div&gt;&lt;span style=&quot;background-color: initial;&quot;&gt;+ Constructor con todo&lt;/span&gt;&lt;/div&gt;&lt;div&gt;&lt;span style=&quot;background-color: initial;&quot;&gt;+ Constructor con nada&lt;/span&gt;&lt;/div&gt;&lt;div&gt;&lt;span style=&quot;background-color: initial;&quot;&gt;+ Getter&amp;amp;Setter&lt;/span&gt;&lt;/div&gt;&lt;div&gt;+ toString&lt;/div&gt;&lt;div&gt;+ Equals&amp;amp;HasCode: cod&lt;/div&gt;" style="text;strokeColor=none;fillColor=none;align=left;verticalAlign=top;spacingLeft=4;spacingRight=4;overflow=hidden;rotatable=0;points=[[0,0.5],[1,0.5]];portConstraint=eastwest;whiteSpace=wrap;html=1;" parent="tJrxlw0aCaHrFr5OWMFE-29" vertex="1">
          <mxGeometry y="118" width="220" height="322" as="geometry" />
        </mxCell>
        <mxCell id="tJrxlw0aCaHrFr5OWMFE-33" value="1" style="endArrow=open;html=1;endSize=12;startArrow=diamondThin;startSize=14;startFill=1;edgeStyle=orthogonalEdgeStyle;align=left;verticalAlign=bottom;rounded=0;exitX=1;exitY=0.5;exitDx=0;exitDy=0;" parent="1" source="tJrxlw0aCaHrFr5OWMFE-28" edge="1">
          <mxGeometry x="-0.8986" y="15" relative="1" as="geometry">
            <mxPoint x="-513.5" y="2279.9399999999996" as="sourcePoint" />
            <mxPoint x="-330" y="2275" as="targetPoint" />
            <mxPoint as="offset" />
          </mxGeometry>
        </mxCell>
        <mxCell id="tJrxlw0aCaHrFr5OWMFE-34" value="&lt;h1 style=&quot;margin-top: 0px;&quot;&gt;&lt;p class=&quot;MsoNormal&quot;&gt;&lt;b&gt;2. Identificación de los casos de uso y elaboración del&lt;br&gt;&lt;span style=&quot;white-space: pre;&quot;&gt;&#x9;&lt;/span&gt;diagrama&lt;/b&gt;&lt;/p&gt;&lt;p class=&quot;MsoNormal&quot;&gt;&lt;b&gt;4. Creación del diagrama de clases UML&lt;/b&gt;&lt;/p&gt;&lt;/h1&gt;" style="text;html=1;whiteSpace=wrap;overflow=hidden;rounded=0;" parent="1" vertex="1">
          <mxGeometry x="-790" y="2580" width="750" height="140" as="geometry" />
        </mxCell>
        <mxCell id="tJrxlw0aCaHrFr5OWMFE-35" value="&amp;lt;include&amp;gt;" style="edgeLabel;html=1;align=center;verticalAlign=middle;resizable=0;points=[];" parent="1" vertex="1" connectable="0">
          <mxGeometry x="-261.18" y="3469.99947368421" as="geometry">
            <mxPoint x="-20" y="255" as="offset" />
          </mxGeometry>
        </mxCell>
        <mxCell id="tJrxlw0aCaHrFr5OWMFE-36" value="&amp;lt;include&amp;gt;" style="edgeLabel;html=1;align=center;verticalAlign=middle;resizable=0;points=[];" parent="1" vertex="1" connectable="0">
          <mxGeometry x="-322.9960134797587" y="3629.9955116554024" as="geometry">
            <mxPoint x="23" y="-4" as="offset" />
          </mxGeometry>
        </mxCell>
        <mxCell id="tgF6irYr1-3-zwe3IuoV-2" value="&amp;lt;include&amp;gt;" style="edgeLabel;html=1;align=center;verticalAlign=middle;resizable=0;points=[];" vertex="1" connectable="0" parent="1">
          <mxGeometry x="-204.18" y="3420" as="geometry">
            <mxPoint x="-93" y="-107" as="offset" />
          </mxGeometry>
        </mxCell>
        <mxCell id="tgF6irYr1-3-zwe3IuoV-3" value="&amp;lt;include&amp;gt;" style="edgeLabel;html=1;align=center;verticalAlign=middle;resizable=0;points=[];" vertex="1" connectable="0" parent="1">
          <mxGeometry x="-121.18" y="3290" as="geometry">
            <mxPoint x="-93" y="-107" as="offset" />
          </mxGeometry>
        </mxCell>
        <mxCell id="tgF6irYr1-3-zwe3IuoV-4" value="&amp;lt;include&amp;gt;" style="edgeLabel;html=1;align=center;verticalAlign=middle;resizable=0;points=[];" vertex="1" connectable="0" parent="1">
          <mxGeometry x="-203" y="3450" as="geometry">
            <mxPoint x="-95" y="-387" as="offset" />
          </mxGeometry>
        </mxCell>
        <mxCell id="tgF6irYr1-3-zwe3IuoV-5" value="Crear lista equipos y jugadores" style="ellipse;whiteSpace=wrap;html=1;" vertex="1" parent="1">
          <mxGeometry x="-414.18" y="2840" width="120" height="55" as="geometry" />
        </mxCell>
        <mxCell id="tgF6irYr1-3-zwe3IuoV-9" value="Extends" style="endArrow=block;endSize=16;endFill=0;html=1;rounded=0;entryX=0.5;entryY=1;entryDx=0;entryDy=0;" edge="1" parent="1" target="tgF6irYr1-3-zwe3IuoV-5">
          <mxGeometry width="160" relative="1" as="geometry">
            <mxPoint x="-210" y="3070" as="sourcePoint" />
            <mxPoint x="-610" y="3150" as="targetPoint" />
          </mxGeometry>
        </mxCell>
        <mxCell id="tgF6irYr1-3-zwe3IuoV-12" value="" style="endArrow=none;html=1;rounded=0;entryX=0;entryY=1;entryDx=0;entryDy=0;startArrow=none;startFill=0;endFill=0;" edge="1" parent="1" target="tgF6irYr1-3-zwe3IuoV-5">
          <mxGeometry width="50" height="50" relative="1" as="geometry">
            <mxPoint x="-570" y="3250" as="sourcePoint" />
            <mxPoint x="-261" y="3110" as="targetPoint" />
            <Array as="points">
              <mxPoint x="-530" y="3110" />
            </Array>
          </mxGeometry>
        </mxCell>
        <mxCell id="tgF6irYr1-3-zwe3IuoV-13" value="" style="endArrow=none;dashed=1;html=1;rounded=0;entryX=0;entryY=0;entryDx=0;entryDy=0;startArrow=open;startFill=0;exitX=0.5;exitY=1;exitDx=0;exitDy=0;" edge="1" parent="1" source="v0JSW52jI6C11VRUSj4h-98" target="v0JSW52jI6C11VRUSj4h-2">
          <mxGeometry width="50" height="50" relative="1" as="geometry">
            <mxPoint x="-344" y="3350" as="sourcePoint" />
            <mxPoint x="-244" y="3311" as="targetPoint" />
          </mxGeometry>
        </mxCell>
        <mxCell id="tgF6irYr1-3-zwe3IuoV-14" value="&amp;lt;include&amp;gt;" style="edgeLabel;html=1;align=center;verticalAlign=middle;resizable=0;points=[];" vertex="1" connectable="0" parent="1">
          <mxGeometry x="-199.17999999999984" y="3427.4705882352946" as="geometry">
            <mxPoint x="-96" y="-188" as="offset" />
          </mxGeometry>
        </mxCell>
        <mxCell id="tgF6irYr1-3-zwe3IuoV-16" value="&amp;lt;include&amp;gt;" style="edgeLabel;html=1;align=center;verticalAlign=middle;resizable=0;points=[];" vertex="1" connectable="0" parent="1">
          <mxGeometry x="-249.99999999999983" y="3490.000588235295" as="geometry">
            <mxPoint x="-46" y="52" as="offset" />
          </mxGeometry>
        </mxCell>
        <mxCell id="tgF6irYr1-3-zwe3IuoV-17" value="" style="endArrow=none;dashed=1;html=1;rounded=0;startArrow=open;startFill=0;fontStyle=1;exitX=0.5;exitY=1;exitDx=0;exitDy=0;" edge="1" parent="1" source="v0JSW52jI6C11VRUSj4h-95" target="v0JSW52jI6C11VRUSj4h-3">
          <mxGeometry width="50" height="50" relative="1" as="geometry">
            <mxPoint x="-301" y="3659" as="sourcePoint" />
            <mxPoint x="-244" y="3621" as="targetPoint" />
          </mxGeometry>
        </mxCell>
      </root>
    </mxGraphModel>
  </diagram>
</mxfile>
